<?xml version="1.0" encoding="UTF-8"?>
<svg id="Layer_1" xmlns="http://www.w3.org/2000/svg" version="1.1" viewBox="0 0 200 100">
  <!-- Generator: Adobe Illustrator 29.8.1, SVG Export Plug-In . SVG Version: 2.1.1 Build 2)  -->
  <defs>
    <style>
      .st0 {
        fill: #fff;
      }

      .st1 {
        stroke: none;
        stroke-miterlimit: 10;
        stroke-width: 0;
      }
    </style>
  </defs>
  <path class="st1" d="M18.36,21.1h161.72c4.33,0,7.84,3.51,7.84,7.84v42.35c0,4.33-3.51,7.84-7.84,7.84H18.36c-4.33,0-7.84-3.51-7.84-7.84V28.94c0-4.33,3.51-7.84,7.84-7.84Z"/>
  <g>
    <path class="st0" d="M56.78,59.45c-.94,2.08-1.39,3.01-2.6,4.85-1.69,2.57-4.07,5.77-7.01,5.79-2.62.02-3.29-1.7-6.84-1.68-3.55.02-4.3,1.71-6.91,1.69-2.95-.03-5.2-2.92-6.89-5.48-4.72-7.18-5.21-15.61-2.3-20.09,2.07-3.18,5.33-5.05,8.4-5.05s5.09,1.71,7.67,1.71,4.03-1.72,7.64-1.72c2.73,0,5.62,1.49,7.68,4.06-6.75,3.7-5.65,13.34,1.17,15.92Z"/>
    <path class="st0" d="M45.19,36.61c1.31-1.68,2.31-4.06,1.95-6.49-2.14.15-4.65,1.51-6.11,3.29-1.33,1.61-2.42,4.01-2,6.33,2.34.07,4.76-1.32,6.16-3.13Z"/>
  </g>
  <g>
    <g>
      <path class="st0" d="M71.16,44.42l-6.76,19.89h3.09l2.02-6.11h6.54l2.07,6.11h3.18l-6.79-19.89h-3.37ZM72.76,47.69c.23.89.47,1.81.79,2.81l1.82,5.27h-5.18l1.8-5.31c.27-.86.53-1.79.78-2.77Z"/>
      <path class="st0" d="M90.06,49.58c-2.05,0-3.69.79-4.79,2.3l-.12-1.98h-2.75l.02.25c.08,1.23.11,2.59.11,4.54v15.33h3.01v-7.16c.93,1.12,2.42,1.77,4.11,1.77s3.38-.69,4.56-1.94c1.32-1.39,2.01-3.4,2.01-5.79,0-2.11-.6-3.94-1.75-5.29-1.12-1.31-2.69-2.04-4.42-2.04ZM89.31,52.07c2.68,0,3.88,2.49,3.88,4.95,0,3.18-1.53,5.15-4,5.15-1.68,0-3.14-1.15-3.55-2.79-.07-.26-.11-.59-.11-.97v-2.42c0-.22.05-.49.1-.74.01-.08.03-.16.04-.24.45-1.72,1.94-2.92,3.63-2.92Z"/>
      <path class="st0" d="M105.55,49.58c-2.05,0-3.69.79-4.79,2.3l-.12-1.98h-2.75l.02.25c.08,1.23.12,2.59.12,4.54v15.33h3.01v-7.16c.93,1.12,2.42,1.77,4.11,1.77s3.38-.69,4.56-1.94c1.32-1.39,2.01-3.4,2.01-5.79,0-2.11-.61-3.94-1.75-5.29-1.12-1.31-2.69-2.04-4.42-2.04ZM104.81,52.07c2.68,0,3.88,2.49,3.88,4.95,0,3.18-1.53,5.15-4,5.15-1.68,0-3.14-1.15-3.55-2.79-.07-.26-.11-.59-.11-.97v-2.42c0-.22.05-.49.1-.75.01-.08.03-.16.04-.24.45-1.72,1.94-2.92,3.63-2.92Z"/>
      <path class="st0" d="M124.97,52.85c-2.81-1.09-3.71-1.94-3.71-3.52,0-1.33,1.06-2.67,3.42-2.67,1.95,0,3.2.68,3.53.89l.26.16.85-2.51-.17-.1c-.5-.3-1.94-.98-4.38-.98-3.84,0-6.52,2.27-6.52,5.51,0,2.62,1.68,4.44,5.28,5.75,2.55.95,3.51,1.93,3.51,3.61,0,1.9-1.47,3.08-3.83,3.08-1.54,0-3.12-.45-4.34-1.23l-.26-.17-.81,2.57.15.1c1.14.76,3.27,1.31,5.09,1.31,5.17,0,7.01-3.15,7.01-5.86s-1.47-4.5-5.08-5.93Z"/>
      <path class="st0" d="M135.47,46.47l-2.95.93v2.5h-2.16v2.41h2.16v7.37c0,1.78.34,3.03,1.04,3.82.67.74,1.71,1.14,2.91,1.14,1.14,0,1.95-.22,2.33-.36l.17-.06-.14-2.41-.29.09c-.38.12-.77.16-1.4.16-1.17,0-1.66-.74-1.66-2.47v-7.28h3.63v-2.41h-3.63v-3.43Z"/>
      <path class="st0" d="M146.56,49.58c-4.21,0-7.15,3.14-7.15,7.64s2.85,7.41,6.92,7.41h.03c3.45,0,7.15-2.4,7.15-7.67,0-2.14-.66-3.98-1.92-5.32-1.26-1.35-3-2.06-5.03-2.06ZM146.47,51.96c2.71,0,3.94,2.64,3.94,5.09,0,3.02-1.68,5.21-4,5.21h-.03c-2.28,0-3.94-2.15-3.94-5.12,0-2.58,1.25-5.18,4.03-5.18Z"/>
      <path class="st0" d="M162.73,49.72l-.18-.05c-.26-.07-.48-.09-.75-.09-1.57,0-2.99.93-3.77,2.42l-.09-2.11h-2.7l.02.25c.08,1.19.11,2.53.11,4.33l-.03,9.83h3.01v-7.67c0-.42.03-.81.08-1.17.34-1.84,1.58-3.03,3.17-3.03.31,0,.55.03.81.05l.32.03v-2.81Z"/>
      <path class="st0" d="M169.49,49.55c-4.01,0-6.81,3.2-6.81,7.79s2.78,7.27,7.09,7.27c2.27,0,3.84-.5,4.77-.91l.18-.08-.58-2.24-.25.1c-.82.33-1.91.67-3.77.67-1.31,0-4.32-.43-4.51-4.36l9.72.03.04-.19c.06-.31.09-.72.09-1.26,0-3.14-1.56-6.81-5.97-6.81ZM169.29,51.84c.92,0,1.66.28,2.21.84.87.88,1.02,2.18,1.04,2.8h-6.86c.28-1.74,1.37-3.64,3.62-3.64Z"/>
    </g>
    <g>
      <path class="st0" d="M64.4,30.83c.84-.11,1.82-.2,2.89-.2,1.94,0,3.32.39,4.24,1.16.95.77,1.49,1.87,1.49,3.39s-.54,2.79-1.51,3.66c-.99.88-2.61,1.36-4.64,1.36-.98,0-1.77-.03-2.47-.11v-9.26ZM65.76,39.17c.34.06.84.06,1.37.06,2.89.01,4.45-1.45,4.45-4,.02-2.25-1.38-3.63-4.24-3.63-.7,0-1.23.06-1.58.13v7.45Z"/>
      <path class="st0" d="M77.85,40.28c-2.02,0-3.6-1.34-3.6-3.48,0-2.26,1.66-3.59,3.72-3.59s3.62,1.41,3.62,3.46c0,2.51-1.94,3.6-3.72,3.6h-.02ZM77.9,39.35c1.3,0,2.28-1.1,2.28-2.64,0-1.15-.64-2.58-2.25-2.58s-2.3,1.34-2.3,2.63c0,1.48.93,2.6,2.25,2.6h.02Z"/>
      <path class="st0" d="M83.76,33.36l1.01,3.42c.2.75.4,1.47.54,2.17h.05c.17-.68.42-1.41.67-2.15l1.23-3.44h1.15l1.16,3.38c.28.8.5,1.52.67,2.21h.05c.12-.68.33-1.4.57-2.19l1.07-3.39h1.35l-2.42,6.76h-1.24l-1.15-3.23c-.26-.77-.48-1.44-.67-2.24h-.03c-.19.81-.42,1.52-.68,2.25l-1.21,3.21h-1.24l-2.27-6.76h1.4Z"/>
      <path class="st0" d="M94.64,35.19c0-.71-.02-1.27-.06-1.83h1.21l.08,1.1h.03c.37-.63,1.24-1.26,2.48-1.26,1.04,0,2.65.56,2.65,2.88v4.04h-1.37v-3.9c0-1.09-.45-2.01-1.74-2.01-.88,0-1.58.57-1.83,1.26-.06.15-.09.38-.09.57v4.08h-1.37v-4.93Z"/>
      <path class="st0" d="M103.25,30.2h1.37v9.92h-1.37v-9.92Z"/>
      <path class="st0" d="M109.94,40.28c-2.02,0-3.6-1.34-3.6-3.48,0-2.26,1.66-3.59,3.73-3.59s3.62,1.41,3.62,3.46c0,2.51-1.94,3.6-3.73,3.6h-.02ZM109.99,39.35c1.3,0,2.28-1.1,2.28-2.64,0-1.15-.64-2.58-2.25-2.58s-2.3,1.34-2.3,2.63c0,1.48.93,2.6,2.25,2.6h.01Z"/>
      <path class="st0" d="M120.7,38.5c0,.59.03,1.16.11,1.62h-1.23l-.12-.85h-.05c-.4.53-1.23,1.01-2.3,1.01-1.52,0-2.3-.96-2.3-1.94,0-1.63,1.61-2.53,4.52-2.51v-.14c0-.56-.17-1.58-1.71-1.56-.71,0-1.44.18-1.97.5l-.31-.82c.62-.35,1.54-.59,2.48-.59,2.31,0,2.87,1.41,2.87,2.77v2.53ZM119.37,36.67c-1.49-.03-3.18.21-3.18,1.52,0,.81.59,1.17,1.27,1.17.99,0,1.63-.56,1.85-1.13.05-.13.06-.27.06-.39v-1.17Z"/>
      <path class="st0" d="M129.38,30.2v8.17c0,.6.02,1.29.06,1.75h-1.23l-.06-1.17h-.03c-.42.75-1.32,1.33-2.55,1.33-1.82,0-3.23-1.38-3.23-3.44-.02-2.26,1.55-3.63,3.37-3.63,1.16,0,1.94.49,2.27,1.02h.03v-4.02h1.37ZM128.01,36.11c0-.17-.02-.36-.06-.53-.2-.77-.95-1.41-1.97-1.41-1.41,0-2.25,1.12-2.25,2.6,0,1.38.76,2.51,2.22,2.51.92,0,1.75-.56,2-1.47.05-.17.06-.34.06-.53v-1.17Z"/>
      <path class="st0" d="M137.99,40.28c-2.02,0-3.6-1.34-3.6-3.48,0-2.26,1.66-3.59,3.73-3.59s3.62,1.41,3.62,3.46c0,2.51-1.94,3.6-3.72,3.6h-.02ZM138.04,39.35c1.3,0,2.28-1.1,2.28-2.64,0-1.15-.64-2.58-2.25-2.58s-2.3,1.34-2.3,2.63c0,1.48.93,2.6,2.25,2.6h.02Z"/>
      <path class="st0" d="M143.46,35.19c0-.71-.02-1.27-.06-1.83h1.21l.08,1.1h.03c.37-.63,1.24-1.26,2.48-1.26,1.04,0,2.65.56,2.65,2.88v4.04h-1.37v-3.9c0-1.09-.45-2.01-1.74-2.01-.88,0-1.58.57-1.83,1.26-.06.15-.09.38-.09.57v4.08h-1.37v-4.93Z"/>
      <path class="st0" d="M157.01,31.74v1.62h1.96v.94h-1.96v3.65c0,.84.26,1.31,1.02,1.31.37,0,.59-.03.79-.08l.06.94c-.26.08-.68.17-1.21.17-.64,0-1.15-.2-1.48-.52-.37-.38-.53-.98-.53-1.77v-3.69h-1.16v-.94h1.16v-1.24l1.33-.38Z"/>
      <path class="st0" d="M160.5,30.2h1.37v4.22h.03c.22-.35.56-.67.98-.87.4-.22.88-.35,1.4-.35,1.01,0,2.62.56,2.62,2.89v4.02h-1.37v-3.88c0-1.1-.45-2.01-1.74-2.01-.88,0-1.57.56-1.83,1.23-.08.17-.09.35-.09.59v4.08h-1.37v-9.92Z"/>
      <path class="st0" d="M169.89,36.95c.03,1.66,1.2,2.35,2.56,2.35.98,0,1.58-.15,2.08-.34l.25.87c-.48.2-1.32.43-2.52.43-2.3,0-3.69-1.38-3.69-3.41s1.35-3.66,3.54-3.66c2.45,0,3.09,1.94,3.09,3.19,0,.25-.01.45-.05.59h-5.26ZM173.88,36.07c.01-.77-.36-2-1.88-2-1.4,0-1.99,1.15-2.1,2h3.97Z"/>
    </g>
  </g>
</svg>
