<?xml version="1.0" encoding="UTF-8"?>
<svg id="Layer_1" data-name="Layer 1" xmlns="http://www.w3.org/2000/svg" version="1.1" viewBox="0 0 224.49 76.38">
  <defs>
    <style>
      .cls-1 {
        fill: #000;
      }

      .cls-1, .cls-2, .cls-3, .cls-4, .cls-5, .cls-6, .cls-7 {
        stroke-width: 0px;
      }

      .cls-2 {
        fill: #3bad49;
      }

      .cls-3 {
        fill: #a6a8ab;
      }

      .cls-4 {
        fill: #5778c5;
      }

      .cls-5 {
        fill: #eb3131;
      }

      .cls-6 {
        fill: #f6b60b;
      }

      .cls-7 {
        fill: #fff;
      }
    </style>
  </defs>
  <g>
    <rect class="cls-1" x="4.25" y="6.97" width="216" height="62.44" rx="7.38" ry="7.38"/>
    <path class="cls-3" d="M212.87,70.22H11.63c-4.52,0-8.19-3.67-8.19-8.19V14.35c0-4.52,3.67-8.19,8.19-8.19h201.24c4.52,0,8.19,3.67,8.19,8.19v47.67c0,4.52-3.67,8.19-8.19,8.19ZM11.63,7.78c-3.62,0-6.57,2.95-6.57,6.58v47.67c0,3.62,2.95,6.57,6.57,6.57h201.24c3.62,0,6.57-2.95,6.57-6.57V14.35c0-3.63-2.95-6.58-6.57-6.58H11.63Z"/>
  </g>
  <g>
    <path class="cls-7" d="M113.22,41.19c-3.78,0-6.87,2.88-6.87,6.84s3.08,6.84,6.87,6.84,6.87-2.9,6.87-6.84-3.08-6.84-6.87-6.84ZM113.22,52.18c-2.07,0-3.86-1.71-3.86-4.15s1.79-4.15,3.86-4.15,3.86,1.68,3.86,4.15-1.79,4.15-3.86,4.15ZM98.24,41.19c-3.78,0-6.87,2.88-6.87,6.84s3.08,6.84,6.87,6.84,6.87-2.9,6.87-6.84-3.08-6.84-6.87-6.84ZM98.24,52.18c-2.07,0-3.86-1.71-3.86-4.15s1.79-4.15,3.86-4.15,3.86,1.68,3.86,4.15-1.79,4.15-3.86,4.15ZM80.42,43.29v2.9h6.94c-.21,1.63-.75,2.82-1.58,3.65-1.01,1.01-2.59,2.12-5.36,2.12-4.28,0-7.62-3.45-7.62-7.72s3.34-7.72,7.62-7.72c2.31,0,3.99.91,5.23,2.07l2.05-2.05c-1.74-1.66-4.04-2.93-7.28-2.93-5.86,0-10.78,4.77-10.78,10.62s4.92,10.62,10.78,10.62c3.16,0,5.55-1.04,7.41-2.98,1.92-1.92,2.51-4.61,2.51-6.79,0-.67-.05-1.3-.16-1.81h-9.77ZM153.29,45.55c-.57-1.53-2.31-4.35-5.86-4.35s-6.45,2.77-6.45,6.84c0,3.84,2.9,6.84,6.79,6.84,3.14,0,4.95-1.92,5.7-3.03l-2.33-1.55c-.78,1.14-1.84,1.89-3.37,1.89s-2.62-.7-3.32-2.07l9.15-3.78-.31-.78ZM143.96,47.83c-.08-2.64,2.05-3.99,3.58-3.99,1.19,0,2.2.6,2.54,1.45l-6.11,2.54ZM136.53,54.46h3.01v-20.11h-3.01v20.11ZM131.6,42.72h-.1c-.67-.8-1.97-1.53-3.6-1.53-3.42,0-6.56,3.01-6.56,6.87s3.14,6.81,6.56,6.81c1.63,0,2.93-.73,3.6-1.55h.1v.98c0,2.62-1.4,4.02-3.65,4.02-1.84,0-2.98-1.32-3.45-2.44l-2.62,1.09c.75,1.81,2.75,4.04,6.06,4.04,3.52,0,6.5-2.07,6.5-7.13v-12.28h-2.85v1.11ZM128.16,52.18c-2.07,0-3.81-1.74-3.81-4.12s1.74-4.17,3.81-4.17,3.65,1.76,3.65,4.17-1.61,4.12-3.65,4.12ZM167.37,34.35h-7.19v20.11h3v-7.62h4.19c3.33,0,6.6-2.41,6.6-6.24s-3.27-6.24-6.6-6.24ZM167.45,44.04h-4.27v-6.89h4.27c2.24,0,3.52,1.86,3.52,3.45s-1.27,3.45-3.52,3.45ZM185.99,41.16c-2.17,0-4.42.96-5.35,3.08l2.66,1.11c.57-1.11,1.63-1.47,2.74-1.47,1.55,0,3.13.93,3.16,2.59v.21c-.54-.31-1.71-.78-3.13-.78-2.87,0-5.79,1.58-5.79,4.53,0,2.69,2.35,4.42,4.99,4.42,2.02,0,3.13-.91,3.83-1.97h.1v1.55h2.9v-7.71c0-3.57-2.66-5.56-6.1-5.56ZM185.63,52.18c-.98,0-2.35-.49-2.35-1.71,0-1.55,1.71-2.15,3.18-2.15,1.32,0,1.94.28,2.74.67-.23,1.86-1.84,3.18-3.57,3.18ZM202.65,41.6l-3.44,8.72h-.1l-3.57-8.72h-3.23l5.35,12.18-3.05,6.78h3.13l8.25-18.96h-3.34ZM175.62,54.46h3v-20.11h-3v20.11Z"/>
    <g>
      <path class="cls-4" d="M20.41,18.35c-.47.49-.74,1.26-.74,2.26v35.54c0,1,.28,1.76.74,2.26l.12.12,19.91-19.91v-.47l-19.91-19.91-.12.12Z"/>
      <path class="cls-6" d="M47.08,45.25l-6.64-6.64v-.47l6.64-6.64.15.09,7.86,4.47c2.25,1.28,2.25,3.36,0,4.64l-7.86,4.47-.15.09Z"/>
      <path class="cls-5" d="M47.23,45.16l-6.79-6.79-20.03,20.03c.74.78,1.96.88,3.34.1l23.48-13.34"/>
      <path class="cls-2" d="M47.23,31.59l-23.48-13.34c-1.38-.78-2.6-.69-3.34.1l20.03,20.03,6.79-6.79Z"/>
    </g>
  </g>
  <g>
    <path class="cls-7" d="M77.37,19.48c-.6-.54-1.4-.88-2.28-.88-1.98,0-3.5,1.63-3.5,3.64s1.52,3.62,3.5,3.62c1.7,0,2.94-.99,3.02-2.55h-2.69v-1.11h4.15c0,3.32-1.77,4.89-4.48,4.89s-4.78-2.17-4.78-4.85,2.09-4.86,4.78-4.86c1.25,0,2.38.48,3.2,1.25l-.92.85Z"/>
    <path class="cls-7" d="M86.91,17.49v1.19h-4.33v3.02h3.78v1.2h-3.78v2.86h4.46v1.19h-5.74v-9.46h5.6Z"/>
    <path class="cls-7" d="M95.19,17.49v1.21h-2.87v8.25h-1.29v-8.25h-2.87v-1.21h7.03Z"/>
    <path class="cls-7" d="M101.32,17.49v9.46h-1.28v-9.46h1.28Z"/>
    <path class="cls-7" d="M110.03,17.49v1.21h-2.87v8.25h-1.29v-8.25h-2.87v-1.21h7.03Z"/>
    <path class="cls-7" d="M119.04,17.38c2.71,0,4.81,2.17,4.81,4.86s-2.1,4.85-4.81,4.85-4.78-2.17-4.78-4.85,2.09-4.86,4.78-4.86ZM119.04,25.86c1.99,0,3.52-1.61,3.52-3.61s-1.52-3.63-3.52-3.63-3.5,1.62-3.5,3.63,1.52,3.61,3.5,3.61Z"/>
    <path class="cls-7" d="M131.4,26.95l-4.31-7.13v7.13h-1.28v-9.46h1.26l4.27,7.07v-7.07h1.28v9.46h-1.22Z"/>
  </g>
</svg>