<?xml version="1.0" encoding="UTF-8"?>
<svg id="Layer_1" xmlns="http://www.w3.org/2000/svg" xmlns:xlink="http://www.w3.org/1999/xlink" version="1.1" viewBox="0 0 200 100">
  <!-- Generator: Adobe Illustrator 29.8.1, SVG Export Plug-In . SVG Version: 2.1.1 Build 2)  -->
  <defs>
    <style>
      .st0 {
        fill: none;
      }

      .st1 {
        fill: url(#linear-gradient2);
      }

      .st2 {
        fill: url(#linear-gradient1);
      }

      .st3 {
        fill: url(#linear-gradient3);
      }

      .st4 {
        fill: url(#linear-gradient);
      }

      .st5 {
        fill: #f9f9f9;
      }

      .st6 {
        fill: #f9f9f9;
      }

      .st7 {
        clip-path: url(#clippath);
      }

      .st8 {
        stroke: none;
        stroke-miterlimit: 10;
        stroke-width: 0;
      }
    </style>
    <clipPath id="clippath">
      <path class="st0" d="M49.12,46.75l-8.03-4.64s-14.63-8.45-15.49-8.95-1.72-.2-1.72.84v36.45c0,.78.61,1.11,1.36.68.75-.43,15.85-9.15,15.85-9.15l8.03-4.64s6.81-3.93,7.72-4.46c.91-.52.82-1.24.05-1.65-.76-.41-7.77-4.49-7.77-4.49Z"/>
    </clipPath>
    <linearGradient id="linear-gradient" x1="33.83" y1="32.31" x2="33.83" y2="71.77" gradientUnits="userSpaceOnUse">
      <stop offset="0" stop-color="#257db0"/>
      <stop offset=".21" stop-color="#3c8fb2"/>
      <stop offset=".74" stop-color="#73bcb9"/>
      <stop offset="1" stop-color="#89cebc"/>
    </linearGradient>
    <linearGradient id="linear-gradient1" x1="23.88" y1="42.11" x2="49.12" y2="42.11" gradientUnits="userSpaceOnUse">
      <stop offset="0" stop-color="#51bfac"/>
      <stop offset="1" stop-color="#dee899"/>
    </linearGradient>
    <linearGradient id="linear-gradient2" x1="36.5" y1="52.04" x2="36.5" y2="71.92" gradientUnits="userSpaceOnUse">
      <stop offset="0" stop-color="#eb403d"/>
      <stop offset=".19" stop-color="#d54251"/>
      <stop offset=".74" stop-color="#9e4787"/>
      <stop offset="1" stop-color="#894a9c"/>
    </linearGradient>
    <linearGradient id="linear-gradient3" x1="51.04" y1="46.75" x2="51.04" y2="57.34" gradientUnits="userSpaceOnUse">
      <stop offset="0" stop-color="#f48779"/>
      <stop offset=".61" stop-color="#f9b075"/>
      <stop offset="1" stop-color="#fdc674"/>
    </linearGradient>
  </defs>
  <path class="st8" d="M18.4,21.1h162.38c4.35,0,7.88,3.53,7.88,7.88v42.52c0,4.35-3.53,7.87-7.87,7.87H18.39c-4.35,0-7.87-3.53-7.87-7.87V28.97c0-4.35,3.53-7.88,7.88-7.88Z"/>
  <g id="PLAY">
    <g class="st7">
      <polygon class="st4" points="23.88 32.31 23.88 52.04 23.88 71.77 43.78 52.04 23.88 32.31"/>
      <polygon class="st2" points="49.12 46.75 41.09 42.11 23.88 32.17 23.88 32.31 43.78 52.04 49.12 46.75"/>
      <polygon class="st1" points="23.88 71.77 23.88 71.92 41.09 61.98 49.12 57.34 43.78 52.04 23.88 71.77"/>
      <polygon class="st3" points="49.12 46.75 43.78 52.04 49.12 57.34 58.3 52.04 49.12 46.75"/>
    </g>
  </g>
  <g>
    <path class="st5" d="M149.15,59.76c-.75,0-1.43-.14-2.05-.41-.62-.28-1.14-.7-1.56-1.27h-.13c.08.67.13,1.31.13,1.91v4.72h-1.74v-16.63h1.41l.24,1.57h.08c.45-.63.97-1.08,1.56-1.36.59-.28,1.27-.42,2.04-.42,1.52,0,2.7.52,3.52,1.56.83,1.04,1.24,2.5,1.24,4.38s-.42,3.35-1.26,4.39c-.84,1.04-2.01,1.56-3.5,1.56ZM148.9,49.34c-1.17,0-2.02.32-2.54.97-.52.65-.79,1.68-.81,3.1v.39c0,1.61.27,2.77.81,3.46.54.69,1.4,1.04,2.59,1.04.99,0,1.77-.4,2.33-1.2.56-.8.84-1.91.84-3.32s-.28-2.53-.84-3.29c-.56-.76-1.35-1.15-2.37-1.15Z"/>
    <path class="st5" d="M157.94,59.55h-1.74v-16.29h1.74v16.29Z"/>
    <path class="st5" d="M167.94,59.55l-.35-1.63h-.08c-.57.72-1.14,1.21-1.71,1.46-.57.26-1.28.38-2.13.38-1.14,0-2.03-.29-2.68-.88s-.97-1.42-.97-2.5c0-2.32,1.85-3.53,5.56-3.64l1.95-.06v-.71c0-.9-.19-1.57-.58-1.99-.39-.43-1.01-.64-1.86-.64-.96,0-2.04.29-3.25.88l-.53-1.33c.57-.31,1.18-.55,1.86-.72.67-.17,1.35-.26,2.03-.26,1.37,0,2.38.3,3.04.91.66.61.99,1.58.99,2.92v7.83h-1.29ZM164.01,58.32c1.08,0,1.93-.3,2.55-.89.62-.59.93-1.42.93-2.49v-1.04l-1.74.07c-1.38.05-2.38.26-2.99.64-.61.38-.92.97-.92,1.77,0,.63.19,1.11.57,1.43.38.33.91.49,1.6.49Z"/>
    <path class="st5" d="M170.23,48.07h1.86l2.51,6.54c.55,1.49.89,2.57,1.03,3.24h.08c.09-.36.28-.97.57-1.83.29-.86,1.24-3.51,2.84-7.95h1.86l-4.93,13.07c-.49,1.29-1.06,2.21-1.71,2.75-.65.54-1.45.81-2.4.81-.53,0-1.05-.06-1.57-.18v-1.39c.38.08.81.13,1.29.13,1.19,0,2.04-.67,2.55-2.01l.64-1.63-4.63-11.54Z"/>
  </g>
  <g>
    <path class="st5" d="M116.96,49.14c.55.46,1.7,1.42,1.7,3.24s-1.01,2.62-2.02,3.41c-.31.31-.67.65-.67,1.18s.36.82.62,1.03l.86.67c1.06.89,2.02,1.7,2.02,3.36,0,2.26-2.18,4.54-6.31,4.54-3.48,0-5.16-1.66-5.16-3.43,0-.86.43-2.09,1.85-2.93,1.49-.91,3.5-1.03,4.58-1.1-.34-.43-.72-.89-.72-1.63,0-.41.12-.65.24-.94-.26.02-.53.05-.77.05-2.54,0-3.98-1.9-3.98-3.77,0-1.1.5-2.33,1.54-3.22,1.37-1.13,3-1.32,4.3-1.32h4.94l-1.54.86h-1.49ZM115.25,59.8c-.19-.03-.31-.03-.55-.03-.22,0-1.51.05-2.52.39-.53.19-2.06.77-2.06,2.47s1.66,2.93,4.23,2.93c2.3,0,3.53-1.11,3.53-2.59,0-1.23-.79-1.87-2.62-3.17ZM115.95,55.24c.55-.55.6-1.32.6-1.75,0-1.73-1.03-4.42-3.02-4.42-.62,0-1.3.31-1.68.79-.41.5-.53,1.15-.53,1.78,0,1.61.94,4.27,3,4.27.6,0,1.25-.29,1.63-.67Z"/>
    <path class="st5" d="M101.84,59.41c-3.81,0-5.85-2.97-5.85-5.66,0-3.14,2.56-5.82,6.21-5.82s5.73,2.75,5.73,5.66-2.18,5.82-6.09,5.82ZM104.84,57.47c.58-.77.72-1.73.72-2.66,0-2.11-1.01-6.13-3.98-6.13-.79,0-1.58.31-2.16.82-.93.84-1.1,1.89-1.1,2.92,0,2.37,1.17,6.28,4.07,6.28.93,0,1.89-.45,2.44-1.22Z"/>
    <path class="st5" d="M88.86,59.41c-3.81,0-5.85-2.97-5.85-5.66,0-3.14,2.56-5.82,6.21-5.82s5.73,2.75,5.73,5.66-2.18,5.82-6.09,5.82ZM91.85,57.47c.58-.77.72-1.73.72-2.66,0-2.11-1.01-6.13-3.98-6.13-.79,0-1.58.31-2.16.82-.93.84-1.1,1.89-1.1,2.92,0,2.37,1.17,6.28,4.07,6.28.93,0,1.89-.45,2.44-1.22Z"/>
    <path class="st5" d="M81.18,59.04l-3.45.8c-1.4.22-2.65.41-3.97.41-6.65,0-9.18-4.89-9.18-8.72,0-4.67,3.59-9.01,9.73-9.01,1.3,0,2.55.19,3.69.51,1.81.51,2.65,1.13,3.18,1.49l-2,1.9-.84.19.6-.96c-.82-.79-2.31-2.26-5.16-2.26-3.81,0-6.67,2.89-6.67,7.11,0,4.53,3.28,8.79,8.53,8.79,1.54,0,2.34-.31,3.06-.6v-3.88l-3.64.19,1.93-1.04h5.11l-.63.6c-.17.15-.19.19-.24.38-.03.22-.05.92-.05,1.16v2.94Z"/>
    <path class="st5" d="M124.57,58.34c-.8-.07-.96-.22-.96-1.16v-13.64c0-.05,0-.11.01-.16.1-.84.34-.99,1.09-1.42h-3.45l-1.81.87h1.84s0,0,0,0v14.87c0,.48-.1.55-.65,1.28h4.26l.89-.53c-.41-.05-.82-.07-1.23-.12Z"/>
    <path class="st5" d="M134.37,58.57c-.26.14-.53.31-.79.43-.79.36-1.6.45-2.32.45-.76,0-1.96-.05-3.18-.93-1.7-1.2-2.44-3.25-2.44-5.05,0-3.71,3.01-5.53,5.48-5.53.86,0,1.75.21,2.47.67,1.2.79,1.51,1.82,1.67,2.37l-5.62,2.27-1.84.14c.6,3.04,2.65,4.81,4.93,4.81,1.22,0,2.11-.43,2.92-.84l-1.27,1.2ZM132.13,51.43c.45-.17.69-.31.69-.65,0-.96-1.08-2.06-2.37-2.06-.96,0-2.75.74-2.75,3.33,0,.41.05.84.07,1.27l4.35-1.89Z"/>
    <g>
      <path class="st5" d="M136.68,48.11v1.58h-.19v-1.58h-.52v-.16h1.24v.16h-.52Z"/>
      <path class="st5" d="M138.84,49.68v-1.59h0l-.49,1.59h-.15l-.49-1.59h0v1.59h-.17v-1.74h.3l.44,1.41h0l.44-1.41h.3v1.74h-.17Z"/>
    </g>
  </g>
  <g>
    <path class="st6" d="M69.36,37.82h-1.2c0-.16-.11-.63-.34-1.4h-1.73c-.23.76-.35,1.22-.35,1.4h-1.13c0-.1.29-.9.87-2.39.58-1.5.87-2.32.87-2.48h1.41c0,.14.26.96.79,2.44.53,1.49.79,2.3.79,2.43ZM67.63,35.7c-.43-1.29-.64-1.98-.64-2.09h-.06c0,.1-.22.79-.66,2.09h1.36Z"/>
    <path class="st6" d="M74.19,37.82h-.92c0-.1-.34-.64-1.03-1.62-.72-1.03-1.13-1.73-1.23-2.11h-.06c.06.55.09,1.04.09,1.48,0,.62.02,1.37.05,2.25h-.92c.04-.77.06-1.62.06-2.55s-.02-1.68-.06-2.32h1.11c0,.13.31.66.92,1.58.66.98,1.03,1.64,1.13,1.99h.06c-.06-.56-.09-1.06-.09-1.5,0-.68-.02-1.37-.05-2.08h.94c-.04.62-.05,1.39-.05,2.32s.02,1.79.05,2.55Z"/>
    <path class="st6" d="M79.61,35.21c0,.71-.23,1.33-.68,1.86-.45.53-1.09.79-1.91.79-.37,0-.88-.01-1.53-.04.03-.75.05-1.6.05-2.55s-.02-1.68-.05-2.32h.65c.11,0,.27,0,.48-.01.21,0,.35-.01.42-.01.9,0,1.55.22,1.96.67.41.45.61.99.61,1.62ZM78.59,35.38c0-.48-.14-.88-.42-1.21-.28-.33-.71-.49-1.28-.49-.11,0-.25.01-.44.03.02.5.04,1.02.04,1.56,0,.6.01,1.19.04,1.77.16.03.32.05.49.05.54,0,.93-.17,1.19-.5.26-.33.39-.74.39-1.22Z"/>
    <path class="st6" d="M84.61,37.82h-1.11c-.29-.88-.51-1.43-.67-1.63-.15-.21-.4-.31-.75-.31-.14,0-.28,0-.42,0,0,.64.01,1.29.03,1.94h-1.04c.03-.75.05-1.6.05-2.55s-.02-1.68-.05-2.32h.65c.07,0,.23,0,.47-.01.24,0,.46-.01.66-.01,1.14,0,1.72.39,1.72,1.17,0,.62-.33,1.05-.98,1.3v.06c.25.07.47.27.66.59.19.32.45.91.77,1.78ZM83.21,34.38c0-.5-.32-.74-.96-.74-.23,0-.44.02-.62.05.03.39.04.89.04,1.51.14,0,.25,0,.35,0,.79,0,1.19-.28,1.19-.83Z"/>
    <path class="st6" d="M89.97,35.29c0,.77-.23,1.4-.7,1.9-.47.5-1.05.76-1.74.76s-1.21-.23-1.65-.69c-.44-.46-.67-1.05-.67-1.76,0-.77.23-1.4.7-1.9.47-.5,1.05-.76,1.74-.76s1.21.23,1.65.69c.44.46.67,1.05.67,1.77ZM88.94,35.4c0-.52-.13-.94-.4-1.27-.27-.32-.6-.49-.99-.49-.36,0-.67.16-.93.49-.25.33-.38.74-.38,1.24s.13.94.4,1.27c.27.33.6.49.99.49.36,0,.67-.16.93-.49.25-.33.38-.74.38-1.24Z"/>
    <path class="st6" d="M92.09,37.82h-1.06c.03-.77.05-1.62.05-2.55s-.02-1.68-.05-2.32h1.06c-.03.63-.05,1.4-.05,2.32s.02,1.79.05,2.55Z"/>
    <path class="st6" d="M97.51,35.21c0,.71-.23,1.33-.68,1.86-.45.53-1.09.79-1.91.79-.37,0-.88-.01-1.53-.04.03-.75.05-1.6.05-2.55s-.02-1.68-.05-2.32h.65c.11,0,.27,0,.48-.01.21,0,.35-.01.42-.01.9,0,1.55.22,1.96.67.41.45.61.99.61,1.62ZM96.49,35.38c0-.48-.14-.88-.42-1.21-.28-.33-.71-.49-1.28-.49-.11,0-.25.01-.44.03.02.5.04,1.02.04,1.56,0,.6.01,1.19.04,1.77.16.03.32.05.49.05.54,0,.93-.17,1.19-.5.26-.33.39-.74.39-1.22Z"/>
    <path class="st6" d="M104.7,37.82h-1.2c0-.16-.11-.63-.34-1.4h-1.73c-.23.76-.35,1.22-.35,1.4h-1.13c0-.1.29-.9.87-2.39.58-1.5.87-2.32.87-2.48h1.41c0,.14.26.96.79,2.44.53,1.49.79,2.3.79,2.43ZM102.98,35.7c-.43-1.29-.64-1.98-.64-2.09h-.06c0,.1-.22.79-.66,2.09h1.36Z"/>
    <path class="st6" d="M109.07,34.22c0,.6-.22,1.04-.66,1.32-.44.28-.99.43-1.63.43-.12,0-.2,0-.25,0,0,.47.01,1.09.04,1.86h-1.05c.03-.72.05-1.57.05-2.55,0-.9-.02-1.67-.05-2.32h.65c.09,0,.27,0,.53-.01.26,0,.49-.01.68-.01.47,0,.87.11,1.2.32.33.21.49.54.49.98ZM108.1,34.43c0-.53-.35-.8-1.06-.8-.18,0-.36.02-.56.06.03.47.04,1.01.04,1.6.06,0,.13,0,.22,0,.91,0,1.37-.29,1.37-.86Z"/>
    <path class="st6" d="M113.55,34.22c0,.6-.22,1.04-.66,1.32-.44.28-.99.43-1.63.43-.12,0-.2,0-.25,0,0,.47.01,1.09.04,1.86h-1.05c.03-.72.05-1.57.05-2.55,0-.9-.02-1.67-.05-2.32h.65c.09,0,.27,0,.53-.01.26,0,.49-.01.68-.01.47,0,.87.11,1.2.32.33.21.49.54.49.98ZM112.59,34.43c0-.53-.35-.8-1.06-.8-.18,0-.36.02-.56.06.03.47.04,1.01.04,1.6.06,0,.13,0,.22,0,.91,0,1.37-.29,1.37-.86Z"/>
    <path class="st6" d="M120.89,35.29c0,.77-.23,1.4-.7,1.9-.47.5-1.05.76-1.74.76s-1.21-.23-1.65-.69c-.44-.46-.67-1.05-.67-1.76,0-.77.23-1.4.7-1.9.47-.5,1.05-.76,1.74-.76s1.21.23,1.65.69c.44.46.67,1.05.67,1.77ZM119.86,35.4c0-.52-.13-.94-.4-1.27-.27-.32-.6-.49-.99-.49-.36,0-.67.16-.93.49-.25.33-.38.74-.38,1.24s.13.94.4,1.27c.27.33.6.49.99.49.36,0,.67-.16.93-.49.25-.33.38-.74.38-1.24Z"/>
    <path class="st6" d="M125.96,37.82h-.92c0-.1-.34-.64-1.03-1.62-.72-1.03-1.13-1.73-1.23-2.11h-.06c.06.55.09,1.04.09,1.48,0,.62.02,1.37.05,2.25h-.92c.04-.77.06-1.62.06-2.55s-.02-1.68-.06-2.32h1.11c0,.13.31.66.92,1.58.66.98,1.03,1.64,1.13,1.99h.06c-.06-.56-.09-1.06-.09-1.5,0-.68-.02-1.37-.05-2.08h.94c-.04.62-.05,1.39-.05,2.32s.02,1.79.05,2.55Z"/>
  </g>
</svg>
