<?xml version="1.0" encoding="UTF-8"?>
<svg id="Layer_1" xmlns="http://www.w3.org/2000/svg" xmlns:xlink="http://www.w3.org/1999/xlink" version="1.1" viewBox="0 0 512 512">
  <!-- Generator: Adobe Illustrator 29.8.1, SVG Export Plug-In . SVG Version: 2.1.1 Build 2)  -->
  <defs>
    <style>
      .st0 {
        fill: url(#linear-gradient2);
      }

      .st1 {
        fill: url(#linear-gradient1);
      }

      .st2 {
        fill: url(#linear-gradient3);
      }

      .st3 {
        fill: url(#linear-gradient5);
      }

      .st4 {
        fill: url(#linear-gradient4);
      }

      .st5 {
        fill: url(#linear-gradient);
      }
    </style>
    <linearGradient id="linear-gradient" x1="581.26" y1="401.96" x2="188.4" y2="208.69" gradientTransform="translate(0 524) scale(1 -1)" gradientUnits="userSpaceOnUse">
      <stop offset=".03" stop-color="#c3922e"/>
      <stop offset=".49" stop-color="#fffbcc"/>
      <stop offset=".54" stop-color="#faf1ba"/>
      <stop offset=".64" stop-color="#efd98e"/>
      <stop offset=".65" stop-color="#eed688"/>
      <stop offset=".85" stop-color="#eb9d29"/>
      <stop offset="1" stop-color="#c3922e"/>
    </linearGradient>
    <linearGradient id="linear-gradient1" x1="557.27" y1="450.74" x2="164.41" y2="257.49" gradientTransform="translate(0 524) scale(1 -1)" gradientUnits="userSpaceOnUse">
      <stop offset=".03" stop-color="#c3922e"/>
      <stop offset=".49" stop-color="#fffbcc"/>
      <stop offset=".54" stop-color="#faf1ba"/>
      <stop offset=".64" stop-color="#efd98e"/>
      <stop offset=".65" stop-color="#eed688"/>
      <stop offset=".85" stop-color="#eb9d29"/>
      <stop offset="1" stop-color="#c3922e"/>
    </linearGradient>
    <linearGradient id="linear-gradient2" x1="570.79" y1="423.25" x2="177.93" y2="229.99" gradientTransform="translate(0 524) scale(1 -1)" gradientUnits="userSpaceOnUse">
      <stop offset=".03" stop-color="#c3922e"/>
      <stop offset=".49" stop-color="#fffbcc"/>
      <stop offset=".54" stop-color="#faf1ba"/>
      <stop offset=".64" stop-color="#efd98e"/>
      <stop offset=".65" stop-color="#eed688"/>
      <stop offset=".85" stop-color="#eb9d29"/>
      <stop offset="1" stop-color="#c3922e"/>
    </linearGradient>
    <linearGradient id="linear-gradient3" x1="565.57" y1="433.85" x2="172.71" y2="240.6" gradientTransform="translate(0 524) scale(1 -1)" gradientUnits="userSpaceOnUse">
      <stop offset=".03" stop-color="#c3922e"/>
      <stop offset=".49" stop-color="#fffbcc"/>
      <stop offset=".54" stop-color="#faf1ba"/>
      <stop offset=".64" stop-color="#efd98e"/>
      <stop offset=".65" stop-color="#eed688"/>
      <stop offset=".85" stop-color="#eb9d29"/>
      <stop offset="1" stop-color="#c3922e"/>
    </linearGradient>
    <linearGradient id="linear-gradient4" x1="539.96" y1="485.89" x2="147.1" y2="292.64" gradientTransform="translate(0 524) scale(1 -1)" gradientUnits="userSpaceOnUse">
      <stop offset=".03" stop-color="#c3922e"/>
      <stop offset=".49" stop-color="#fffbcc"/>
      <stop offset=".54" stop-color="#faf1ba"/>
      <stop offset=".64" stop-color="#efd98e"/>
      <stop offset=".65" stop-color="#eed688"/>
      <stop offset=".85" stop-color="#eb9d29"/>
      <stop offset="1" stop-color="#c3922e"/>
    </linearGradient>
    <linearGradient id="linear-gradient5" x1="551.14" y1="463.2" x2="158.27" y2="269.93" gradientTransform="translate(0 524) scale(1 -1)" gradientUnits="userSpaceOnUse">
      <stop offset=".03" stop-color="#c3922e"/>
      <stop offset=".49" stop-color="#fffbcc"/>
      <stop offset=".54" stop-color="#faf1ba"/>
      <stop offset=".64" stop-color="#efd98e"/>
      <stop offset=".65" stop-color="#eed688"/>
      <stop offset=".85" stop-color="#eb9d29"/>
      <stop offset="1" stop-color="#c3922e"/>
    </linearGradient>
  </defs>
  <path class="st5" d="M399,150.52c-69.51-2.65-142.94,1.35-208.8,25.75-5.31,1.96-35.94,13.55-70.78,36.65-31.18,21.91-59.02,53.1-77.55,86.44-2.6,4.67-17.7,33.85-15.31,36.29,5.29-2.17,17.6,7.86,19.84,6.45,6.66-14.28,13.61-28.32,21.99-41.67,28.09-44.75,72.7-81.18,122.15-100.48,10.09-3.93,25.69-8.08,36.44-10.9,26.18-6.86,53.83-11.71,80.88-13.1l-21.22,16.23c-30.17,26.62-57.28,86.87-58.22,88.72-12.01,23.82-22.01,48.76-35.76,71.7-21.01-31.68-28.36-83.09-66.23-98.7l-17.86,16.05,17.41,9.41c3.25,2.65,6.83,5.7,9.19,9.17,17.83,26.07,28.89,67.12,46.6,93.33,6.13,9.06,13.06,10.17,21.28,2.36,15.91-30.41,29.9-61.83,45.43-92.4,19.49-38.38,33.55-71.75,71.35-96.17,12.82-8.29,44.64-22.58,59.41-22.58h33.21l-92.59,179.5-42.4-83.38c-1.62-2.09-1.33-1.24-2.85-.03-2.25,1.77-10.65,19.01-10.65,21.95,13.33,31.33,30.44,61.29,45,92.19,7.49,8.78,15.42,8,21.79-1.46,8.26-12.25,14.7-28.41,21.33-40.93,22.52-42.51,45.08-85.3,66.77-128.24,5.51-10.92,19.92-35.35,22.36-45.56,5.53-23.1-28.4-16.1-42.23-16.62v.03h0Z"/>
  <path class="st1" d="M448.85,105.57c-6.89,1.25-14.18,9.11-15.05,16.05-3.76,29.76,44.43,29.77,37.71-2.65-2.12-10.25-12.99-15.18-22.66-13.41Z"/>
  <path class="st0" d="M20.55,350.1c-22.56,4.63-18.65,40.2,4.98,38.92,27.82-1.51,21.12-44.27-4.98-38.92Z"/>
  <path class="st2" d="M494.11,119.7c-3.44.21-12.15,2.22-9.46,6.62,1.51,2.46,22.26,2.39,25.34-2.01-.02-2.23-13.25-4.77-15.88-4.61h0Z"/>
  <path class="st4" d="M452.77,92.52c3.85,1.2,4.39-1.9,4.79-5.07.35-2.76-.24-18.02-1.27-18.98-.16-.14-4.04-.13-4.2,0-1.6,1.3-2.61,23.02.68,24.05h0Z"/>
  <path class="st3" d="M493.05,84.03c-8.65,2.12-16.23,9.7-18.37,18.37,6.67,3.23,21.04-15.43,18.37-18.37Z"/>
</svg>