<?xml version="1.0" encoding="UTF-8"?>
<svg id="Layer_1" xmlns="http://www.w3.org/2000/svg" xmlns:xlink="http://www.w3.org/1999/xlink" version="1.1" viewBox="0 0 1167.69 230.85">
  <!-- Generator: Adobe Illustrator 29.8.1, SVG Export Plug-In . SVG Version: 2.1.1 Build 2)  -->
  <defs>
    <style>
      .st0 {
        fill: url(#linear-gradient2);
      }

      .st1 {
        fill: url(#linear-gradient1);
      }

      .st2 {
        fill: url(#linear-gradient9);
      }

      .st3 {
        fill: url(#linear-gradient3);
      }

      .st4 {
        fill: url(#linear-gradient6);
      }

      .st5 {
        fill: url(#linear-gradient8);
      }

      .st6 {
        fill: url(#linear-gradient7);
      }

      .st7 {
        fill: url(#linear-gradient5);
      }

      .st8 {
        fill: url(#linear-gradient4);
      }

      .st9 {
        fill: url(#linear-gradient12);
      }

      .st10 {
        fill: url(#linear-gradient11);
      }

      .st11 {
        fill: url(#linear-gradient10);
      }

      .st12 {
        fill: url(#linear-gradient);
      }

      .st13 {
        fill: #fff;
      }
    </style>
    <linearGradient id="linear-gradient" x1="1142.09" y1="364.49" x2="766.32" y2="364.49" gradientTransform="translate(0 493.12) scale(1 -1)" gradientUnits="userSpaceOnUse">
      <stop offset=".03" stop-color="#c3922e"/>
      <stop offset=".49" stop-color="#fffbcc"/>
      <stop offset=".54" stop-color="#faf1ba"/>
      <stop offset=".64" stop-color="#efd98e"/>
      <stop offset=".65" stop-color="#eed688"/>
      <stop offset=".85" stop-color="#eb9d29"/>
      <stop offset="1" stop-color="#c3922e"/>
    </linearGradient>
    <linearGradient id="linear-gradient1" x1="1142.09" y1="392.98" x2="766.32" y2="392.98" gradientTransform="translate(0 493.12) scale(1 -1)" gradientUnits="userSpaceOnUse">
      <stop offset=".03" stop-color="#c3922e"/>
      <stop offset=".49" stop-color="#fffbcc"/>
      <stop offset=".54" stop-color="#faf1ba"/>
      <stop offset=".64" stop-color="#efd98e"/>
      <stop offset=".65" stop-color="#eed688"/>
      <stop offset=".85" stop-color="#eb9d29"/>
      <stop offset="1" stop-color="#c3922e"/>
    </linearGradient>
    <linearGradient id="linear-gradient2" x1="1142.09" y1="331.99" x2="766.32" y2="331.99" gradientTransform="translate(0 493.12) scale(1 -1)" gradientUnits="userSpaceOnUse">
      <stop offset=".03" stop-color="#c3922e"/>
      <stop offset=".49" stop-color="#fffbcc"/>
      <stop offset=".54" stop-color="#faf1ba"/>
      <stop offset=".64" stop-color="#efd98e"/>
      <stop offset=".65" stop-color="#eed688"/>
      <stop offset=".85" stop-color="#eb9d29"/>
      <stop offset="1" stop-color="#c3922e"/>
    </linearGradient>
    <linearGradient id="linear-gradient3" x1="1142.09" y1="331.79" x2="766.32" y2="331.79" gradientTransform="translate(0 493.12) scale(1 -1)" gradientUnits="userSpaceOnUse">
      <stop offset=".03" stop-color="#c3922e"/>
      <stop offset=".49" stop-color="#fffbcc"/>
      <stop offset=".54" stop-color="#faf1ba"/>
      <stop offset=".64" stop-color="#efd98e"/>
      <stop offset=".65" stop-color="#eed688"/>
      <stop offset=".85" stop-color="#eb9d29"/>
      <stop offset="1" stop-color="#c3922e"/>
    </linearGradient>
    <linearGradient id="linear-gradient4" x1="1142.09" y1="426.22" x2="766.32" y2="426.22" gradientTransform="translate(0 493.12) scale(1 -1)" gradientUnits="userSpaceOnUse">
      <stop offset=".03" stop-color="#c3922e"/>
      <stop offset=".49" stop-color="#fffbcc"/>
      <stop offset=".54" stop-color="#faf1ba"/>
      <stop offset=".64" stop-color="#efd98e"/>
      <stop offset=".65" stop-color="#eed688"/>
      <stop offset=".85" stop-color="#eb9d29"/>
      <stop offset="1" stop-color="#c3922e"/>
    </linearGradient>
    <linearGradient id="linear-gradient5" x1="1142.09" y1="426.26" x2="766.32" y2="426.26" gradientTransform="translate(0 493.12) scale(1 -1)" gradientUnits="userSpaceOnUse">
      <stop offset=".03" stop-color="#c3922e"/>
      <stop offset=".49" stop-color="#fffbcc"/>
      <stop offset=".54" stop-color="#faf1ba"/>
      <stop offset=".64" stop-color="#efd98e"/>
      <stop offset=".65" stop-color="#eed688"/>
      <stop offset=".85" stop-color="#eb9d29"/>
      <stop offset="1" stop-color="#c3922e"/>
    </linearGradient>
    <linearGradient id="linear-gradient6" x1="36.02" y1="372.86" x2="851.45" y2="372.86" gradientTransform="translate(0 493.12) scale(1 -1)" gradientUnits="userSpaceOnUse">
      <stop offset=".03" stop-color="#c3922e"/>
      <stop offset=".74" stop-color="#fffbcc"/>
      <stop offset=".75" stop-color="#faf1ba"/>
      <stop offset=".77" stop-color="#efd98e"/>
      <stop offset=".77" stop-color="#eed688"/>
      <stop offset=".93" stop-color="#eb9d29"/>
      <stop offset="1" stop-color="#c3922e"/>
    </linearGradient>
    <linearGradient id="linear-gradient7" x1="36.02" y1="373.7" x2="851.45" y2="373.7" gradientTransform="translate(0 493.12) scale(1 -1)" gradientUnits="userSpaceOnUse">
      <stop offset=".03" stop-color="#c3922e"/>
      <stop offset=".49" stop-color="#fffbcc"/>
      <stop offset=".54" stop-color="#faf1ba"/>
      <stop offset=".64" stop-color="#efd98e"/>
      <stop offset=".65" stop-color="#eed688"/>
      <stop offset=".85" stop-color="#eb9d29"/>
      <stop offset="1" stop-color="#c3922e"/>
    </linearGradient>
    <linearGradient id="linear-gradient8" x1="36.02" y1="373.09" x2="851.45" y2="373.09" gradientTransform="translate(0 493.12) scale(1 -1)" gradientUnits="userSpaceOnUse">
      <stop offset=".03" stop-color="#c3922e"/>
      <stop offset=".49" stop-color="#fffbcc"/>
      <stop offset=".54" stop-color="#faf1ba"/>
      <stop offset=".64" stop-color="#efd98e"/>
      <stop offset=".65" stop-color="#eed688"/>
      <stop offset=".85" stop-color="#eb9d29"/>
      <stop offset="1" stop-color="#c3922e"/>
    </linearGradient>
    <linearGradient id="linear-gradient9" x1="36.02" y1="373.33" x2="851.45" y2="373.33" gradientTransform="translate(0 493.12) scale(1 -1)" gradientUnits="userSpaceOnUse">
      <stop offset=".03" stop-color="#c3922e"/>
      <stop offset=".49" stop-color="#fffbcc"/>
      <stop offset=".54" stop-color="#faf1ba"/>
      <stop offset=".64" stop-color="#efd98e"/>
      <stop offset=".65" stop-color="#eed688"/>
      <stop offset=".85" stop-color="#eb9d29"/>
      <stop offset="1" stop-color="#c3922e"/>
    </linearGradient>
    <linearGradient id="linear-gradient10" x1="36.02" y1="373.3" x2="851.45" y2="373.3" gradientTransform="translate(0 493.12) scale(1 -1)" gradientUnits="userSpaceOnUse">
      <stop offset=".03" stop-color="#c3922e"/>
      <stop offset=".49" stop-color="#fffbcc"/>
      <stop offset=".54" stop-color="#faf1ba"/>
      <stop offset=".64" stop-color="#efd98e"/>
      <stop offset=".65" stop-color="#eed688"/>
      <stop offset=".85" stop-color="#eb9d29"/>
      <stop offset="1" stop-color="#c3922e"/>
    </linearGradient>
    <linearGradient id="linear-gradient11" x1="36.02" y1="373.7" x2="851.45" y2="373.7" gradientTransform="translate(0 493.12) scale(1 -1)" gradientUnits="userSpaceOnUse">
      <stop offset=".03" stop-color="#c3922e"/>
      <stop offset=".49" stop-color="#fffbcc"/>
      <stop offset=".54" stop-color="#faf1ba"/>
      <stop offset=".64" stop-color="#efd98e"/>
      <stop offset=".65" stop-color="#eed688"/>
      <stop offset=".85" stop-color="#eb9d29"/>
      <stop offset="1" stop-color="#c3922e"/>
    </linearGradient>
    <linearGradient id="linear-gradient12" x1="36.02" y1="373.31" x2="851.45" y2="373.31" gradientTransform="translate(0 493.12) scale(1 -1)" gradientUnits="userSpaceOnUse">
      <stop offset=".03" stop-color="#c3922e"/>
      <stop offset=".49" stop-color="#fffbcc"/>
      <stop offset=".54" stop-color="#faf1ba"/>
      <stop offset=".64" stop-color="#efd98e"/>
      <stop offset=".65" stop-color="#eed688"/>
      <stop offset=".85" stop-color="#eb9d29"/>
      <stop offset="1" stop-color="#c3922e"/>
    </linearGradient>
  </defs>
  <g>
    <path class="st12" d="M1127.21,109.91c-3.15-29.06-41.19-29.74-48.5-3.14-7.25,26.35,11.28,42.43,36.86,36.29,1.6,4.28-2.99,15.12-7.55,15.12h-21.51v11.63h21.51c5.15,0,14.43-6.23,16.73-11.18,3.49-7.5,3.46-39.47,2.46-48.72h0ZM1115.57,132.6h-18.02c-4.96,0-8.43-10.61-8.63-14.72-.6-12.15,6.2-22.95,19.75-18.49,2.41.79,6.9,7.37,6.9,9.38v23.84h0Z"/>
    <path class="st1" d="M1052.78,89.57v36.63c0,8.55-17.74,10.36-19.69-2.4-.71-4.66,1.05-20.32-.58-22.68-1.49-2.14-8.41-.72-11.12-1.09v25c0,10.65-17.79,11.17-19.69-1.24-.69-4.5,1.03-19.19-.58-21.51-1.49-2.14-8.41-.72-11.12-1.09v27.33c0,7.43-15.17,3.03-19.77,4.07-1.65-.95-3.72-.46-5.86-2.87-.75-.85-3.45-6.39-3.45-7.02v-31.98h-11.63v36.63c0,7.74-26.75,7.42-26.75-1.16V57.58c0-2.56-12.79-2.56-12.79,0v69.77c0,6.92-20,7.31-23.03,2.1l-1.38-48.04c-2.65.42-8.62-.87-10.55.5-1.67,1.19-.72,4.85-1.12,5.27-.69.72-14.68.15-19.72,1.8-24.8,8.09-21.84,50.9,7.43,50.45,4.78-.07,12.51-4.83,13.97-4.62.42.06,3.12,4.91,5.4,6.43,6.5,4.34,25.31,4.06,32.38,1.1,1.91-.8,4.76-4.11,6.35-3.83,1.02.18,2.8,2.8,4.58,3.6,5.23,2.37,16.7,3.07,22.28,2.04,3.06-.57,7.95-5.38,10.72-5.55,1.89-.11,5.33,3.59,7.88,4.49,6.46,2.3,22.37,1.96,28.55-1.22,1.48-.76,2.99-3.61,5.03-3.31,1.46.21,5.39,4.33,8.85,5.13,5.53,1.29,12.98.87,17.93-2,1.82-1.05,3.83-4.07,4.83-4.47.47-.19,1.12,2.39,2.44,3.34,7.93,5.72,24.6,5.44,29.3-4.22.26-.54,2.55-9.41,2.61-10.11.6-6.6,1.03-27.94-.05-33.79-.91-4.95-7.96-2.34-11.63-2.91l-.02.04h0ZM874.31,119.84c-3.18,12.3-22.22,11.53-24.77-.88-2.31-11.25,1.83-19.25,13.41-20.94,2.51-.37,10.05-1.16,11.4.78,1.17,1.68.7,18.19-.04,21.04Z"/>
    <path class="st0" d="M960.56,154.91c-5.02,1.54-5.98,10.55.01,12.32,13.82,4.09,11.6-15.89-.01-12.32Z"/>
    <path class="st3" d="M941.42,156.13c-6.17,6.16,4.71,17.49,10.27,9.69,5.72-8.02-4.78-15.17-10.27-9.69Z"/>
    <path class="st8" d="M850.93,72.21c8.14,5.8,14.76-5.22,9.69-10.28-6.6-6.59-17.29,4.86-9.69,10.28Z"/>
    <path class="st7" d="M869.66,73.27c12.46,2.39,11.57-16.28-.97-12.53-4.58,1.37-4.92,11.4.97,12.53Z"/>
  </g>
  <g>
    <path class="st4" d="M94.58,170.73h-1.36c-.73,0-1.39-.45-1.66-1.13l-31.22-78.65c-2.34-6.39-4.72-10.73-7.15-13.02-2.09-1.96-4.75-3.12-7.96-3.47-.92-.1-1.63-.85-1.63-1.78v-1.11c0-.99.8-1.79,1.79-1.79h35.7c.99,0,1.79.8,1.79,1.79v1.03c0,.96-.75,1.75-1.71,1.78-2.94.11-5.01.54-6.21,1.26-1.42.86-2.13,2.11-2.13,3.73,0,1.93.71,4.72,2.13,8.37l17.66,44.45,4.72,12.79h.76l16.66-43.06c.53-1.38,2.42-1.55,3.19-.29l3.61,5.92c.73,1.19-.13,2.72-1.52,2.72h0c-.74,0-1.41.46-1.67,1.15l-22.11,58.14c-.26.69-.93,1.15-1.67,1.15v.02h0ZM145.08,170.73h-1.6c-.74,0-1.41-.46-1.67-1.15l-23.29-61.5s-.03-.09-.05-.13l-2.37-5.04s-.05-.1-.07-.16l-5-13.93c-1.63-4.46-3.1-7.71-4.42-9.74-1.32-2.03-2.84-3.32-4.57-3.88-1.37-.44-3.13-.71-5.27-.8-.96-.04-1.73-.82-1.73-1.78v-1.03c0-.99.8-1.79,1.79-1.79h36.16c.99,0,1.79.8,1.79,1.79v1.03c0,.97-.77,1.75-1.74,1.78-6.56.25-9.84,1.96-9.84,5.14,0,1.22.3,2.64.91,4.26s1.17,3.15,1.68,4.57l15.83,41.11,5.02,15.07h.76l17.36-50.54c.51-1.62.96-3.2,1.37-4.72.4-1.52.73-3.02.99-4.49.25-1.47.38-2.82.38-4.03,0-2.33-.81-3.98-2.44-4.95-1.35-.8-3.38-1.27-6.07-1.41-.95-.05-1.7-.85-1.7-1.81v-1.01c0-.99.8-1.79,1.79-1.79h27.79c.99,0,1.79.8,1.79,1.79v1.11c0,.93-.71,1.69-1.64,1.78-2.75.28-4.9,1.05-6.43,2.33-1.83,1.52-3.45,4.21-4.87,8.07l-28.97,84.66c-.25.72-.93,1.21-1.69,1.21l.02-.02h0Z"/>
    <path class="st6" d="M203.48,169.81h-28.4c-.99,0-1.79-.8-1.79-1.79v-1.06c0-.95.74-1.71,1.69-1.78,2.07-.15,3.79-.59,5.16-1.31,1.72-.91,3.4-2.76,5.02-5.56,1.62-2.79,3.65-7.08,6.09-12.86l31.81-75.33c.28-.66.93-1.09,1.65-1.09h3.89c.71,0,1.35.42,1.64,1.07l35.61,81.59c2.23,4.97,4.39,8.48,6.47,10.5,1.78,1.74,4.29,2.73,7.53,2.98.94.07,1.68.83,1.68,1.78v1.07c0,.99-.8,1.79-1.79,1.79h-37.38c-.99,0-1.79-.8-1.79-1.79v-1.04c0-.95.75-1.73,1.7-1.78s1.99-.13,3.02-.26c1.62-.2,2.99-.71,4.11-1.52s1.67-2.08,1.67-3.81c0-1.12-.18-2.41-.53-3.88-.36-1.47-1.04-3.32-2.05-5.56l-6.52-15.17s-.03-.08-.05-.12l-1.05-2.99-17.36-44.15h-.46l-17.81,44.15-1.05,2.99s-.03.07-.04.1l-7.41,17.54s-.04.09-.05.14c-.4,1.19-.77,2.36-1.12,3.51-.36,1.17-.53,2.46-.53,3.88,0,2.13.81,3.53,2.44,4.19,1.35.55,3.37.87,6.06.96.96.03,1.71.83,1.71,1.78v1.02c0,.99-.8,1.79-1.79,1.79l.02.02h0ZM241.67,136.47h-37.17c-1.25,0-2.11-1.25-1.67-2.41l.94-2.52c.26-.7.93-1.16,1.67-1.16h35.28c.74,0,1.41.46,1.67,1.16l.94,2.52c.44,1.17-.43,2.41-1.67,2.41h.01Z"/>
    <path class="st5" d="M292.04,172.1h-1.48c-.96,0-1.75-.76-1.78-1.71l-1.22-29.31c-.04-1.01.77-1.86,1.78-1.86h1.49c.81,0,1.51.55,1.72,1.33,1.75,6.36,3.76,11.27,6.04,14.74,2.44,3.71,5.45,6.24,9.06,7.61,3.6,1.37,7.99,2.05,13.17,2.05,3.86,0,7.15-.53,9.9-1.6,2.74-1.07,4.87-2.79,6.39-5.18,1.52-2.38,2.28-5.5,2.28-9.36,0-4.46-1.24-8.17-3.73-11.11-2.49-2.94-5.66-5.56-9.52-7.84s-7.87-4.59-12.03-6.93c-4.06-2.33-7.97-4.82-11.72-7.46-3.76-2.64-6.83-5.78-9.21-9.44-2.39-3.65-3.58-8.12-3.58-13.4s1.32-9.87,3.96-13.47c2.64-3.6,6.14-6.37,10.51-8.3,4.36-1.93,9.18-2.89,14.46-2.89,4.67,0,8.27.38,10.81,1.14s4.54,1.55,6.01,2.36,2.82,1.22,4.03,1.22,2.21-.33,2.97-.99c.57-.49,1.04-1.26,1.41-2.29.25-.69.93-1.14,1.66-1.14h.91c.96,0,1.75.76,1.79,1.72l.94,26.87c.04,1.01-.77,1.85-1.79,1.85h-1.34c-.81,0-1.52-.55-1.73-1.34-2.09-7.75-4.82-13.55-8.18-17.39-3.55-4.06-9.19-6.04-16.9-5.94-5.18,0-9.19,1.19-12.03,3.58s-4.26,5.96-4.26,10.73c0,3.76,1.07,6.98,3.2,9.67s4.92,5.1,8.37,7.23c3.45,2.13,7.05,4.31,10.81,6.55,3.35,1.93,6.72,3.86,10.12,5.78,3.4,1.93,6.49,4.11,9.29,6.55,2.79,2.44,5.02,5.28,6.7,8.52,1.68,3.25,2.51,7.16,2.51,11.72,0,5.89-1.35,10.86-4.03,14.92-2.69,4.06-6.37,7.13-11.04,9.21s-9.95,3.12-15.83,3.12c-5.28,0-9.57-.38-12.86-1.14-3.3-.76-5.89-1.52-7.76-2.28-1.88-.76-3.43-1.14-4.64-1.14-1.02,0-1.93.46-2.74,1.37-.55.62-.94,1.38-1.16,2.28-.2.8-.91,1.37-1.73,1.37v.02h0Z"/>
    <path class="st2" d="M412.02,169.81h-46.18c-.99,0-1.79-.8-1.79-1.79v-1.02c0-.97.78-1.76,1.75-1.78,3.68-.09,6.45-.46,8.3-1.12,2.13-.76,3.5-2.23,4.11-4.42.61-2.18.91-5.45.91-9.82v-59.98c0-3.96-.25-7.08-.76-9.36-.51-2.28-1.8-3.88-3.88-4.8-1.82-.8-4.71-1.25-8.68-1.35-.97-.02-1.75-.81-1.75-1.78v-1.02c0-.99.8-1.79,1.79-1.79h40.27c.99,0,1.79.8,1.79,1.79v1.02c0,.97-.78,1.76-1.75,1.78-3.87.1-6.74.55-8.6,1.35-2.13.91-3.43,2.51-3.88,4.8-.46,2.28-.68,5.4-.68,9.36v59.98c0,4.37.3,7.64.91,9.82.61,2.18,1.98,3.65,4.11,4.42,1.84.66,10.46,1.03,14.05,1.12.97.02,1.75.81,1.75,1.78v1.02c0,.99-.8,1.79-1.79,1.79Z"/>
    <path class="st11" d="M493.6,169.81h-81.4c-.99,0-1.79-.8-1.79-1.79v-1.02c0-.97.78-1.76,1.75-1.78,3.19-.09,14.83-.44,16.51-1.04,1.98-.71,3.27-2.08,3.88-4.11.61-2.03.91-5.02.91-8.98v-61.96c0-3.96-.3-7-.91-9.13s-1.9-3.6-3.88-4.41c-1.68-.69-4.12-1.09-7.32-1.19-.97-.03-1.74-.82-1.74-1.78v-1.02c0-.99.8-1.79,1.79-1.79h39.21c.99,0,1.79.8,1.79,1.79v1.03c0,.97-.77,1.75-1.74,1.78-3.22.11-5.76.53-7.62,1.27-2.18.86-3.65,2.36-4.42,4.49-.76,2.13-1.14,5.18-1.14,9.13v66.07c0,3.35.81,5.53,2.44,6.55,1.62,1.02,4.67,1.52,9.13,1.52h7c5.07,0,9.18-.38,12.33-1.14,3.14-.76,5.66-2.05,7.54-3.88s3.45-4.24,4.72-7.23c1.15-2.71,2.41-6,3.77-9.84.25-.71.93-1.2,1.69-1.2h1.52c1.09,0,1.93.98,1.77,2.06l-4.02,26.11c-.13.87-.88,1.51-1.77,1.51v-.02Z"/>
    <path class="st10" d="M532.93,169.81h-28.4c-.99,0-1.79-.8-1.79-1.79v-1.06c0-.95.74-1.71,1.69-1.78,2.07-.15,3.79-.59,5.16-1.31,1.72-.91,3.4-2.76,5.02-5.56,1.62-2.79,3.65-7.08,6.09-12.86l31.81-75.33c.28-.66.93-1.09,1.65-1.09h3.89c.71,0,1.35.42,1.64,1.07l35.61,81.59c2.23,4.97,4.39,8.48,6.47,10.5,1.78,1.74,10.38,2.73,13.62,2.98.94.07,1.68.83,1.68,1.78v1.07c0,.99-.8,1.79-1.79,1.79h-43.47c-.99,0-1.79-.8-1.79-1.79v-1.04c0-.95.75-1.73,1.7-1.78s1.99-.13,3.02-.26c1.62-.2,2.99-.71,4.11-1.52s1.67-2.08,1.67-3.81c0-1.12-.18-2.41-.53-3.88-.36-1.47-1.04-3.32-2.05-5.56l-6.52-15.17s-.03-.08-.05-.12l-1.05-2.99-17.36-44.15h-.46l-17.81,44.15-1.05,2.99s-.03.07-.04.1l-7.41,17.54s-.04.09-.05.14c-.4,1.19-.77,2.36-1.12,3.51-.36,1.17-.53,2.46-.53,3.88,0,2.13.81,3.53,2.44,4.19,1.35.55,3.37.87,6.06.96.96.03,1.71.83,1.71,1.78v1.02c0,.99-.8,1.79-1.79,1.79l.02.02h0ZM571.11,136.47h-37.17c-1.25,0-2.11-1.25-1.67-2.41l.94-2.52c.26-.7.93-1.16,1.67-1.16h35.28c.74,0,1.41.46,1.67,1.16l.94,2.52c.44,1.17-.43,2.41-1.67,2.41h.01Z"/>
    <path class="st9" d="M658.98,169.81h-43.35c-.99,0-1.79-.8-1.79-1.79v-1.01c0-.97.79-1.76,1.76-1.78,3.67-.08,9.64-.4,11.44-.97,2.08-.66,3.4-2.11,3.96-4.34.56-2.23.84-5.58.84-10.05v-59.98c0-3.96-.25-7.08-.76-9.36-.51-2.28-1.8-3.88-3.88-4.8-1.81-.8-4.6-1.24-8.37-1.35-.97-.03-1.75-.81-1.75-1.78v-1.02c0-.99.8-1.79,1.79-1.79h40.12c.99,0,1.79.8,1.79,1.79v1.02c0,.97-.78,1.76-1.75,1.78-3.87.1-6.74.55-8.6,1.35-2.13.91-3.43,2.51-3.88,4.8-.46,2.28-.68,5.4-.68,9.36v23.79c0,.99.8,1.79,1.79,1.79h46.36c.99,0,1.79-.8,1.79-1.79v-23.79c0-3.96-.25-7.08-.76-9.36-.51-2.28-1.8-3.88-3.88-4.8-1.81-.8-4.6-1.24-8.37-1.35-.97-.03-1.75-.81-1.75-1.78v-1.02c0-.99.8-1.79,1.79-1.79h39.97c.99,0,1.79.8,1.79,1.79v1.02c0,.97-.78,1.76-1.75,1.78-3.87.1-6.74.55-8.6,1.35-2.13.91-3.43,2.49-3.88,4.72-.46,2.23-.68,5.38-.68,9.44v59.98c0,4.37.28,7.66.84,9.9.56,2.23,1.9,3.71,4.03,4.42,1.85.62,4.61.97,8.29,1.05.97.02,1.76.81,1.76,1.78v1.02c0,.99-.8,1.79-1.79,1.79h-39.97c-.99,0-1.79-.8-1.79-1.79v-1.01c0-.97.78-1.76,1.76-1.79,3.67-.08,6.41-.43,8.21-1.05,2.08-.71,3.4-2.18,3.96-4.42.56-2.23.84-5.53.84-9.9v-26.68c0-.99-.8-1.79-1.79-1.79h-46.36c-.99,0-1.79.8-1.79,1.79v26.68c0,4.47.28,7.79.84,9.97s1.9,3.63,4.03,4.34c1.85.62,4.61.97,8.29,1.05.97.02,1.76.81,1.76,1.78v1.02c0,.99-.8,1.79-1.79,1.79h-.04Z"/>
  </g>
  <circle class="st13" cx="787.53" cy="122.88" r="14.59"/>
</svg>