<?xml version="1.0" encoding="UTF-8"?>
<svg id="Layer_1" xmlns="http://www.w3.org/2000/svg" xmlns:xlink="http://www.w3.org/1999/xlink" version="1.1" viewBox="0 0 512 512">
  <!-- Generator: Adobe Illustrator 29.8.1, SVG Export Plug-In . SVG Version: 2.1.1 Build 2)  -->
  <defs>
    <style>
      .st0 {
        fill: url(#linear-gradient2);
      }

      .st1 {
        fill: url(#linear-gradient1);
      }

      .st2 {
        fill: url(#linear-gradient3);
      }

      .st3 {
        fill: url(#linear-gradient5);
      }

      .st4 {
        fill: url(#linear-gradient4);
      }

      .st5 {
        fill: url(#linear-gradient);
      }
    </style>
    <linearGradient id="linear-gradient" x1="461.92" y1="170.33" x2="213.99" y2="292.3" gradientTransform="translate(0 12)" gradientUnits="userSpaceOnUse">
      <stop offset=".03" stop-color="#c3922e"/>
      <stop offset=".49" stop-color="#fffbcc"/>
      <stop offset=".54" stop-color="#faf1ba"/>
      <stop offset=".64" stop-color="#efd98e"/>
      <stop offset=".65" stop-color="#eed688"/>
      <stop offset=".85" stop-color="#eb9d29"/>
      <stop offset="1" stop-color="#c3922e"/>
    </linearGradient>
    <linearGradient id="linear-gradient1" x1="446.78" y1="139.54" x2="198.85" y2="261.5" gradientTransform="translate(0 12)" gradientUnits="userSpaceOnUse">
      <stop offset=".03" stop-color="#c3922e"/>
      <stop offset=".49" stop-color="#fffbcc"/>
      <stop offset=".54" stop-color="#faf1ba"/>
      <stop offset=".64" stop-color="#efd98e"/>
      <stop offset=".65" stop-color="#eed688"/>
      <stop offset=".85" stop-color="#eb9d29"/>
      <stop offset="1" stop-color="#c3922e"/>
    </linearGradient>
    <linearGradient id="linear-gradient2" x1="455.31" y1="156.89" x2="207.38" y2="278.85" gradientTransform="translate(0 12)" gradientUnits="userSpaceOnUse">
      <stop offset=".03" stop-color="#c3922e"/>
      <stop offset=".49" stop-color="#fffbcc"/>
      <stop offset=".54" stop-color="#faf1ba"/>
      <stop offset=".64" stop-color="#efd98e"/>
      <stop offset=".65" stop-color="#eed688"/>
      <stop offset=".85" stop-color="#eb9d29"/>
      <stop offset="1" stop-color="#c3922e"/>
    </linearGradient>
    <linearGradient id="linear-gradient3" x1="452.02" y1="150.2" x2="204.09" y2="272.16" gradientTransform="translate(0 12)" gradientUnits="userSpaceOnUse">
      <stop offset=".03" stop-color="#c3922e"/>
      <stop offset=".49" stop-color="#fffbcc"/>
      <stop offset=".54" stop-color="#faf1ba"/>
      <stop offset=".64" stop-color="#efd98e"/>
      <stop offset=".65" stop-color="#eed688"/>
      <stop offset=".85" stop-color="#eb9d29"/>
      <stop offset="1" stop-color="#c3922e"/>
    </linearGradient>
    <linearGradient id="linear-gradient4" x1="435.86" y1="117.36" x2="187.93" y2="239.32" gradientTransform="translate(0 12)" gradientUnits="userSpaceOnUse">
      <stop offset=".03" stop-color="#c3922e"/>
      <stop offset=".49" stop-color="#fffbcc"/>
      <stop offset=".54" stop-color="#faf1ba"/>
      <stop offset=".64" stop-color="#efd98e"/>
      <stop offset=".65" stop-color="#eed688"/>
      <stop offset=".85" stop-color="#eb9d29"/>
      <stop offset="1" stop-color="#c3922e"/>
    </linearGradient>
    <linearGradient id="linear-gradient5" x1="442.91" y1="131.68" x2="194.98" y2="253.65" gradientTransform="translate(0 12)" gradientUnits="userSpaceOnUse">
      <stop offset=".03" stop-color="#c3922e"/>
      <stop offset=".49" stop-color="#fffbcc"/>
      <stop offset=".54" stop-color="#faf1ba"/>
      <stop offset=".64" stop-color="#efd98e"/>
      <stop offset=".65" stop-color="#eed688"/>
      <stop offset=".85" stop-color="#eb9d29"/>
      <stop offset="1" stop-color="#c3922e"/>
    </linearGradient>
  </defs>
  <path class="st5" d="M346.9,200.3c-43.87-1.67-90.21.85-131.77,16.25-3.35,1.24-22.68,8.55-44.67,23.13-19.68,13.83-37.25,33.51-48.94,54.55-1.64,2.95-11.17,21.36-9.66,22.9,3.34-1.37,11.11,4.96,12.52,4.07,4.2-9.01,8.59-17.87,13.88-26.3,17.73-28.24,45.88-51.23,77.09-63.41,6.37-2.48,16.21-5.1,23-6.88,16.52-4.33,33.97-7.39,51.04-8.27l-13.39,10.24c-19.04,16.8-36.15,54.82-36.74,55.99-7.58,15.03-13.89,30.77-22.57,45.25-13.26-19.99-17.9-52.44-41.8-62.29l-11.27,10.13,10.99,5.94c2.05,1.67,4.31,3.6,5.8,5.79,11.25,16.45,18.23,42.36,29.41,58.9,3.87,5.72,8.24,6.42,13.43,1.49,10.04-19.19,18.87-39.02,28.67-58.31,12.3-24.22,21.17-45.28,45.03-60.69,8.09-5.23,28.17-14.25,37.49-14.25h20.96l-58.43,113.28-26.76-52.62c-1.02-1.32-.84-.78-1.8-.02-1.42,1.12-6.72,12-6.72,13.85,8.41,19.77,19.21,38.68,28.4,58.18,4.73,5.54,9.73,5.05,13.75-.92,5.21-7.73,9.28-17.93,13.46-25.83,14.21-26.83,28.45-53.83,42.14-80.93,3.48-6.89,12.57-22.31,14.11-28.75,3.49-14.58-17.92-10.16-26.65-10.49v.02h0Z"/>
  <path class="st1" d="M378.36,171.93c-4.35.79-8.95,5.75-9.5,10.13-2.37,18.78,28.04,18.79,23.8-1.67-1.34-6.47-8.2-9.58-14.3-8.46Z"/>
  <path class="st0" d="M108.06,326.25c-14.24,2.92-11.77,25.37,3.14,24.56,17.56-.95,13.33-27.94-3.14-24.56Z"/>
  <path class="st2" d="M406.92,180.85c-2.17.13-7.67,1.4-5.97,4.18.95,1.55,14.05,1.51,15.99-1.27-.01-1.41-8.36-3.01-10.02-2.91h0Z"/>
  <path class="st4" d="M380.83,163.7c2.43.76,2.77-1.2,3.02-3.2.22-1.74-.15-11.37-.8-11.98-.1-.09-2.55-.08-2.65,0-1.01.82-1.65,14.53.43,15.18h0Z"/>
  <path class="st3" d="M406.25,158.34c-5.46,1.34-10.24,6.12-11.59,11.59,4.21,2.04,13.28-9.74,11.59-11.59Z"/>
</svg>