<?xml version="1.0" encoding="UTF-8"?>
<svg id="Layer_1" xmlns="http://www.w3.org/2000/svg" version="1.1" viewBox="0 0 512 512">
  <!-- Generator: Adobe Illustrator 29.8.1, SVG Export Plug-In . SVG Version: 2.1.1 Build 2)  -->
  <path d="M255.09,487.42c.02-1.79-1.22-2.51-2.24-3.63-20.28-22.33-43.72-42.01-64.21-64.18h-96.29v-96.29L24.56,255.52l67.79-67.81v-95.38h95.38l68.59-67.74,67.93,67.74h95.38v95.38l67.81,67.36v1.81l-67.81,67.36v95.38h-95.38l-67.36,67.81h-1.81ZM392.51,119.45h-80.01l-56.18-55.99-56.83,55.99h-80.01v80.01l-55.99,56.83,55.99,56.18v80.01h80.01l56.83,55.99,56.18-55.99h80.01v-80.01l55.99-56.18-55.99-56.83v-80.01Z"/>
  <path d="M269.55,206.24v104.42c0,4.2,6.33,8.49,10.43,8.63,4.36.15,11.27-4.03,11.27-8.63v-104.42h27.12v107.14c0,1.97-2.96,10.03-4.03,12.24-10.48,21.63-39.2,27.12-57.97,12.59-6.72,3.4-12.1,7.28-19.93,8.06-17.58,1.74-42.83-12.78-42.83-31.98v-25.77h-49.73v-48.37c0-1.46,2.42-8.52,3.18-10.38,11.7-28.58,53.29-30.82,68.39-4.24,10.57,18.61,3.13,59.89,5.24,82.46.61,6.52,4.19,11.55,11.31,11.3,4.09-.14,10.43-4.42,10.43-8.63v-104.42h27.12ZM193.61,261.39v-18.53c0-5.2-6.57-8.67-11.3-8.67s-11.3,3.46-11.3,8.67v18.53h22.6Z"/>
  <rect x="340.07" y="206.24" width="27.12" height="140.14"/>
  <rect x="242.43" y="147.47" width="27.12" height="30.74"/>
</svg>