<?xml version="1.0" encoding="UTF-8"?>
<svg id="Layer_1" xmlns="http://www.w3.org/2000/svg" version="1.1" viewBox="0 0 512 512">
  <!-- Generator: Adobe Illustrator 29.8.1, SVG Export Plug-In . SVG Version: 2.1.1 Build 2)  -->
  <path d="M221.46,121.15c.27.43,5.8,3.27,8.08,5.93,10.74,12.52,4.25,20.05,7.45,31.17.78,2.71,8.93,11.55,11.17,16.84,5.94,14.04,4.98,25.58.68,39.79-7.76,25.64-19.77,51.4-28.27,76.93,12.34,32.09,2.79,72.53-11,102.97-2.09,4.61-11.37,23.01-15.27,24.32-5.89,1.98-10.47-.76-11.56-6.79,5.34-10.98,11.55-20.6,16.09-32.11,8.36-21.16,15.57-51.18,10.43-73.63-1.29-5.65-5.28-10.77-4.33-16.79,8.09-27.25,23.07-55.62,30.19-82.8,2.62-10.02,1.84-17.06-1.25-26.81-.26-.27-1.21.51-1.45.95-1.43,2.59-3.02,10.42-4.32,14.02-5.35,14.77-18.75,48.28-28.07,59.82-5.45,6.75-13.74,3.31-14.49-4.75,11.49-22.82,24.04-45.57,31.2-70.27,3.85-13.27,7.83-27.87,2.63-41.27l-6.03,18.57c-4.5,11.8-8.98,23.61-14.09,35.16-6.45,14.58-17.61,40.55-26.09,53.1-5.7,8.43-14.45,5.98-15.25-3.61,14.96-33.93,36.35-68.92,45.73-104.95,3.52-13.51,7.99-32.89-12.79-18.56-5.66,32.46-21.63,63.65-36.72,92.69-2.89,5.57-16.41,32.43-19.35,34.74-5.9,4.64-13.13-.15-12.91-7.01,14.9-29.8,32.8-59.38,44.79-90.5,2.99-7.75,6.49-16.73,7.95-24.88,5.68-31.76-17.17-6.97-25.8,3.2-17.98,21.18-32.34,46.35-47.22,69.72l5.66,58.58-.69,33.89c11.01,7.43,19.2,17.63,23.33,30.38,2.63,8.12,8.81,31.21-6.52,27.74-6.82-1.54-5.98-16.11-8.16-22.74-2.39-7.26-7.21-14.87-13.35-19.49-3.87-2.91-8.7-3.31-10.66-7.69.01-13.98,1.08-28.02.52-42.03-.77-19.3-3.1-52.11-7.84-70.36-2.5-9.63-12.79-10.94-17.72-2.46-4,25.47-8.38,51.03-11.17,76.68-2.65,24.33-7.17,56.22-.49,79.61,7.29,25.49,24.6,48.48,38.75,70.46.57,8.14-7.16,12.93-13.65,6.79-6.95-6.58-21.18-31.24-26.1-40.55-17.37-32.89-19.55-52.16-16.89-89.29,1.54-21.55,4.78-45.01,7.87-66.47,1.68-11.68,4.29-39.97,10.5-48.4,8.24-11.18,24.51-13.21,35.27-4.32,1.62,1.34,5.62,7.02,6.79,6.73,12.25-18.72,23.99-38.05,38.68-55.03,10.57-12.22,31-35.47,48.22-22.04,1.6,1.25,2.6,4.15,4.19,4.56,1.72.44,8.03-2.59,11.39-2.81,10.72-.72,19.88,3.88,21.72,15.08.35,2.12-.44,6.91.24,7.98Z"/>
  <path d="M404.84,290c-.17-30.8,1.29-61.59,6.07-92.02l-.55-2.32c-17.61-25.23-34.86-60.72-57.98-81.15-27.78-24.55-10.97,22.93-6.78,33.79,12.04,31.25,30.11,60.57,44.58,90.72-.2,8.87-9.34,12.04-14.93,4.2s-12.41-23.13-17.1-32.15c-15.08-29.01-31.16-60.22-36.72-92.69-26.42-18.14-13.09,19.09-8.95,31.14,11.03,32.15,28.21,62.11,42.02,93.05-1.4,8.66-9.63,11.14-15.03,3.55-6.46-9.08-16.18-31.42-21.3-42.44-9.72-20.92-19-42.51-24.32-65.01-1.62.57-2.65,4.92-2.81,6.35-3.88,34.08,20.53,74.18,35.28,103.67,1.41,9.34-8.63,13.47-14.52,5.74-12.9-16.93-23.8-50.66-31.37-71-.46-1.23-.22-2.96-2.04-3.26-2.96,9.46-3.86,16.29-1.47,26.07,6.73,27.55,23.1,56.67,30.41,84.55.63,5.5-3.11,10.49-4.32,15.79-5.48,23.95,3.1,57.61,12.92,79.83,1.99,4.51,13.32,23.1,13.43,25.07.4,7.03-7.98,10.79-13.21,6.56-2.63-2.13-9.95-16.17-11.82-20.05-15.5-32.04-25.21-71.61-12.62-106.17-8.5-25.53-20.51-51.29-28.27-76.93-4.3-14.22-5.26-25.75.68-39.79,2.24-5.3,10.39-14.13,11.17-16.84,2.96-10.3-2.85-18.22,6.47-30.22,2.34-3.02,8.75-6.4,9.06-6.88.68-1.06-.11-5.86.24-7.98,1.78-10.85,10.29-15.46,20.74-15.09,3.72.13,10.8,3.23,12.36,2.83s5.65-7.51,11.84-8.5c15.32-2.45,31.87,15.88,41.01,26.5,14.49,16.83,26.07,36.02,38.24,54.5,4-2.97,6-7.08,10.8-9.47,15.27-7.59,31.78.85,35.82,16.98,5.99,23.9,9.37,60.5,11.86,85.64,5.58,56.18,4.51,78.71-25.7,126.83-3.38,5.38-11.68,19.15-15.83,22.81-6.93,6.1-16.87-.89-11.47-10.49,13.03-23.17,29.24-39.91,37.05-67.26,8.89-31.1-2.14-97-7.41-130.62-1.13-7.22-2-18.54-3.95-25.01-2.51-8.33-15.17-8.52-18.03,1.8-4.78,17.25-7.09,51.82-7.83,70.36-.56,14.01.51,28.05.52,42.03-1.96,4.38-6.79,4.79-10.66,7.69-13.54,10.19-13.02,21.32-16.21,35.94-2.05,9.4-14.17,8.42-15.29.29-2.24-16.3,10.75-43.34,25.94-50.93Z"/>
</svg>