<?xml version="1.0" encoding="UTF-8"?>
<svg id="Layer_1" xmlns="http://www.w3.org/2000/svg" version="1.1" viewBox="0 0 512 512">
  <!-- Generator: Adobe Illustrator 29.8.1, SVG Export Plug-In . SVG Version: 2.1.1 Build 2)  -->
  <path d="M397.42,59.09c5.04,2.17,8.78,5.64,9.3,11.46,22.15-2.48,41.55,7.2,46.06,30.08v10c-2.56,11.56-10.42,22.77-21.77,27.07-8.05,3.05-15.88,1.98-24.29,2.24-.81,7.01-5.16,11.78-12.39,11.9v208.79c7.85-.96,12.48,5.85,12.32,13.07,22.16-2.67,41.64,7.17,46.13,30-.28,3.18.39,6.91,0,10-1.39,10.9-11.58,23.21-21.77,27.07-7.95,3.01-15.57,1.98-23.88,2.26-2.82,5.2-5.12,9.17-11.63,9.9H116.37c-6.52-.73-8.81-4.69-11.63-9.9-14.89.67-27.53-.32-37.58-12.4-15.14-18.18-7.98-46.13,14.03-54.44,8.1-3.06,15.51-2.63,24.03-2.5-.16-7.22,4.47-14.03,12.31-13.07v-209.23c-7.34.86-11.51-4.74-12.38-11.46-15.23.75-28.24-.28-38.36-12.79-15.89-19.64-5.92-49.27,18.43-55.37,6.73-1.68,13.07-1.02,19.92-1.23.52-5.82,4.26-9.29,9.3-11.46h282.97ZM383.58,82.16h-255.29v46.15h255.29v-46.15ZM105.22,93.7h-13.46c-.7,0-5.54,2.61-6.27,3.34-4.79,4.77-4.23,13.14.88,17.44.49.41,3.63,2.29,3.86,2.29h14.99v-23.08ZM420.1,93.7c-3.92-.66-9.34.48-13.46,0v23.08h14.99c.22,0,3.37-1.88,3.86-2.29,7.59-6.4,3.99-19.2-5.4-20.78ZM371.27,151.39h-230.68v209.22h230.68v-209.22ZM383.58,383.68h-255.29v46.15h255.29v-46.15ZM105.22,396.76h-13.46c-.7,0-5.54,2.61-6.27,3.34-4.79,4.77-4.23,13.14.88,17.44.49.41,3.63,2.29,3.86,2.29h14.99v-23.08ZM420.1,396.76c-3.92-.66-9.34.48-13.46,0v23.08h14.23c.2,0,3.25-1.35,3.73-1.65,8.69-5.43,5.38-19.76-4.5-21.42Z"/>
  <path d="M168.84,271.57l172.83-.19c14.19,1.81,13.41,21.56-.77,23.08h-169.94c-13.35-1.43-15.36-19.64-2.12-22.89Z"/>
  <path d="M168.06,175.41l174.39-.19c14.05,3.43,12.19,21.61-2.34,23.08h-168.38c-13.73-1.39-16.5-17.86-3.68-22.89Z"/>
  <path d="M168.06,225.41l174.39-.19c15.19,3.84,11.27,23.06-3.88,23.08h-165.3c-14.37-.1-19.07-17.4-5.22-22.89Z"/>
  <path d="M163.15,337.27c-6.76-6.79-2.31-18.61,7.03-19.76l133.05.02c13.93,1.59,13.94,21.48,0,23.08l-135.51-.59c-1.32-.92-3.48-1.67-4.56-2.75Z"/>
</svg>