<?xml version="1.0" encoding="UTF-8"?>
<svg id="Layer_1" xmlns="http://www.w3.org/2000/svg" version="1.1" viewBox="0 0 512 512">
  <!-- Generator: Adobe Illustrator 29.8.1, SVG Export Plug-In . SVG Version: 2.1.1 Build 2)  -->
  <path d="M89.78,367.92c-15.91-1.88-30.43-17.66-31.75-33.37-.64-7.58,1.03-12.04,3.27-18.94,14.34-44.21,34.39-87.9,49.15-132.12,2.29-19.88-5.53-43.95,12.36-58.49,10.38-8.44,21.45-7.73,34.19-7.47,1.33-35.01,51.96-34.82,52.84.05l19.77-.05c1.33-35.01,51.96-34.82,52.84.05l19.77-.05c1.34-35.01,51.95-34.82,52.84.05l19.77-.05c1.44-35.43,52.76-34.64,52.93.79,14.14,2.38,24.54,14.49,26.32,28.5l.04,243.79c-2.18,17-14.61,28.72-31.77,30.06l-280.56-.04c-13.76-.06-30.96-15.44-30.96-29.22v-23.47c-6.68-.57-14.51.77-21.04,0ZM196.64,117.57c-.77-17.58-25.3-17.66-26.4,0h26.4ZM269.25,117.57c-.77-17.58-25.3-17.66-26.4,0h26.4ZM341.86,117.57c-.77-17.58-25.3-17.66-26.4,0h26.4ZM414.47,117.57c-.77-17.58-25.3-17.66-26.4,0h26.4ZM157.03,130.74h-16.92c-7.08,0-16.23,11.49-16.08,18.54l-.04,186.14c.97,11.17,8.94,18.94,20.21,19.36h277.31c9.89-.66,18.02-7.85,19.37-17.74l.03-188.63c.72-6.49-9.4-17.67-15.3-17.67h-37.54v13.59c23.83,9.68,12.23,45.6-12.56,38.06-17.53-5.33-18.51-31.44-.64-36.83v-14.82h-59.41v13.59c23.83,9.68,12.23,45.6-12.56,38.06-17.53-5.33-18.51-31.44-.64-36.83v-14.82h-59.41v13.59c23.83,9.68,12.23,45.6-12.56,38.06-17.53-5.33-18.51-31.44-.64-36.83v-14.82h-59.41v13.59c23.83,9.68,12.23,45.6-12.56,38.06-17.53-5.33-18.51-31.44-.64-36.83v-14.82ZM158.91,168.39c6.13,6.12,16.11-3.59,9.28-9.67s-14.96,3.99-9.28,9.67ZM231.52,168.39c6.13,6.12,16.11-3.59,9.28-9.67-6.78-6.02-14.96,3.99-9.28,9.67ZM304.14,168.39c5.69,5.67,15.73-2.49,9.69-9.26s-15.82,3.14-9.69,9.26ZM376.75,168.39c5.69,5.67,15.73-2.49,9.69-9.26s-15.82,3.14-9.69,9.26ZM110.82,354.74v-133.41l-39.51,106.74c-2.65,10.75,9.22,26.68,20.12,26.68h19.39ZM440.87,361.33c-5.62,4-12.44,6.14-19.35,6.63H142.56c-6.47-.75-12.96-2.56-18.13-6.62-.86,10.12,8.25,18.88,18.17,19.75l278.1.05c10.83-.18,20.27-8.83,20.17-19.8ZM440.87,387.69c-5.75,3.84-12.34,6.24-19.35,6.63H142.56c-6.47-.75-12.96-2.56-18.13-6.62-.86,10.12,8.25,18.88,18.17,19.75l278.1.05c10.83-.18,20.28-8.83,20.17-19.8Z"/>
  <path d="M278.95,183.67c14.91-2.04,20.54,10.6,30.49,18.55,10.55,1.09,24.03-2.63,32.45,5.49,8.98,8.66,4.68,21.73,5.92,32.8,9.15,11.25,21.1,15.29,18.74,32.21-1.27,9.06-13.64,16.16-18.74,23.3-1.24,10.91,2.97,23.65-5.5,32.39-8.53,8.8-21.97,4.74-32.87,5.9-8.19,6.31-14.4,17.92-25.71,18.8-13.7,1.07-19.98-11.02-29.09-18.8-10.93-1.21-22.27,2.73-31.62-4.68-10.44-8.27-6.59-22.91-7.58-34.44-6.5-7.4-18.22-14.79-18.85-25.67-.74-12.78,11.76-19.58,18.85-28.19,1.02-11.21-2.61-23.78,5.93-32.79,8.88-9.37,21.79-5.14,33.27-6.33,7.96-5.98,13.64-17.09,24.31-18.55ZM279.77,196.81c-5.3,1.38-14.62,15.56-20.38,18.39-6.65,1.9-24.21-2.31-28.56,2.79s-.76,21.48-2.18,28.29c-3.34,5.36-19.13,16.26-18.8,22.34.32,5.74,15.48,16.33,18.8,21.65,1.13,7.6-.95,17.14.22,24.49,1.72,10.88,22.97,4.23,30.53,6.59,4.22,1.3,13.45,14.36,18.15,17.3,2.5,1.56,5.26,1.98,7.85.49,5.24-3.02,12.74-15.57,18.74-17.53,6.99-2.28,25.17,1.99,29.13-3.04,2.99-3.79-.08-20.96,1.56-27.26s14.77-14.01,17.81-19.28c1.28-2.22,1.27-5.3,0-7.5-3.04-5.28-16.2-13.14-17.81-19.28-1.72-6.59,1.89-24.2-2.43-28.04-4.35-3.87-22.24-.18-28.53-2-5.61-2.74-15.83-17.9-21.07-18.56-1.08-.14-1.96-.1-3.02.17Z"/>
  <path d="M311.61,260.32c3.33-3.21,9.48-2.39,10.9,2.15,3.95,12.6-6.47,29.25-16.21,36.62-33.97,25.7-79.44-11.78-61.7-50.87,3.09-6.8,14.45-21.39,22.77-18.02,7.71,3.12.9,12.03.31,17.17-2.32,20.23,20.34,33.71,36.62,21.73,3.47-2.55,4.95-6.51,7.3-8.78ZM297.72,286.39c-4.21.29-8.91,0-13.2,0-.93,0-8.39-2.74-9.8-3.4-10.11-4.73-16.85-14.1-19.91-24.61-7.57,27.01,26.9,48.19,46.62,27.19-1.4-.58-2.93.76-3.71.82Z"/>
  <path d="M284.33,247.45c-3.19-3.2-1.95-10.06,2.83-11.12,2.58-.57,14.4-.58,16.97,0,6.06,1.35,6.79,10.99-.18,12.64-3.65.86-17.05,1.06-19.63-1.52Z"/>
</svg>