<?xml version="1.0" encoding="UTF-8"?>
<svg id="Layer_1" xmlns="http://www.w3.org/2000/svg" version="1.1" viewBox="0 0 512 512">
  <!-- Generator: Adobe Illustrator 29.8.1, SVG Export Plug-In . SVG Version: 2.1.1 Build 2)  -->
  <path d="M253.03,54.91l7.07-.02,162.02,37.63,5.03,5.38.36,166.18c22.11,14.78,45.28,33.56,51.81,60.79,10.47,43.6-22.83,76.24-57.63,95.52-88.61,49.08-243.34,48.98-331.83-.33-67.89-37.83-82.8-99.15-15.75-148.54,2.52-1.86,10.25-5.78,10.71-8.21l-.05-162.8c-.05-8.52,8.07-8.55,14.41-10.19,50.87-13.19,102.88-22.52,153.85-35.39ZM386.65,99.13l-130.25-29.98-130.91,30.44,17.08,3.83,113.07-26.1,113.83,26,17.17-4.19ZM336.5,110.48l-80.89-18.06-79.97,18.52,80.91,18.52c25.72-5.75,51.56-11.18,77.11-17.59,1.07-.27,3.07.05,2.84-1.39ZM248.47,142.68l-149.45-34.1c.53,3.1-1.49,9.59,1.59,11.17l146.65,34.1c1.74.51,1.12,0,1.26-1.25.34-3.11-.19-6.73-.05-9.91ZM263.66,153.99l149.06-34.97-.52-10.45-148.5,34.11-.04,11.31ZM248.51,186.17v-16.56l-149.5-34.54v17.03l149.5,34.06ZM413.15,135.07l-149.5,34.54v16.56l149.5-34.06v-17.03ZM248.51,201.31l-149.5-34.06v119.22l149.5,33.12v-118.28ZM413.15,167.24l-149.5,34.06v118.28l22.66-4.78.47-100.3c1.05-2.38,2.37-3.69,4.81-4.65,16.35-6.47,40.56-7.34,57.74-13.31,4-1.08,8.94,3.44,8.94,7.13v95.09l54.88-12.3v-119.22ZM301.5,311.07l41.63-9.94v-88.47l-41.63,9.46v88.94ZM84.81,341.82v-59.14c-34.93,22.74-55.02,59.05-24.14,95.58,42.63,50.43,145.63,66.34,208.22,64.38,56.35-1.77,143.83-19.2,182.13-63.89,31.51-36.77,11.67-73.08-23.68-96.07v58.19c0,1.82-5.03,6.14-7.36,5.89-47.06,9.37-93.32,23.1-140.24,32.92-10.62,2.22-19.65,4.21-30.75,3.28l-161.59-37.81c-.39-.28-2.55-3.13-2.59-3.34ZM118.83,305.43l-19.82-3.83c.26,2.28-.87,6.56.93,8.06.99.82,13.58,3.65,15.87,4.01,1.03.16,2.03.34,3.07.23l-.04-8.48ZM413.15,301.6l-19.82,3.83-.04,8.48,19.83-3.83.04-8.48ZM176.59,327.16c-.3-2.24.89-7.78-.9-9.03l-41.67-8.94.55,8.62,42.02,9.35ZM379.08,309.17l-42.57,8.52v9.46s42.48-9.55,42.48-9.55l.09-8.43ZM248.5,344.18c-.36-2.37.95-8.68-.9-9.97l-56.81-12.73.54,9.57,57.16,13.13ZM321.25,330.81l-.34-9.32c-18.8,5.45-38.27,8.3-57.14,13.36l-.12,9.33,57.59-13.37ZM142.41,334.85l-43.4-9.59.05,8.48c14.65,2.4,28.99,6.54,43.47,9.5l-.12-8.39ZM413.15,325.26l-42.98,9.35-.54,8.62,41.95-9.61,1.44-1.4.13-6.97ZM209.67,349.9l-51.99-11.4.09,8.43c17.35,3.55,34.47,8.54,51.94,11.45l-.04-8.48ZM355.43,338.51l-52.98,11.36v8.51s51.41-11.51,51.41-11.51l1.44-1.4.13-6.97ZM249.36,359.42l-24.5-5.76.12,8.39c8.03,2.36,16.25,4.22,24.47,5.8l-.09-8.42ZM263.66,367.84l22.72-5.18c1.87-1.41.59-6.71.92-9.01l-23.52,5.8-.12,8.39Z"/>
  <path d="M426.14,365.19c7.43-1.65,12.4,5.09,7.83,11.65-8.73,12.52-43.36,30.2-58.15,34.56-4.49,1.33-8.21,2.76-11.35-1.96-6.88-10.37,10.06-12.81,16.49-15.61,9.38-4.08,18.93-8.46,27.38-14.25,3.72-2.55,15.6-13.91,17.8-14.4Z"/>
  <path d="M326.88,408.77c10.13-.72,11.97,11.09,4.5,14.03-4.66,1.83-25.89,4.73-31.29,4.74-8.79.02-12.59-7.66-5.9-13.55,10.33-1.53,22.44-4.49,32.69-5.22Z"/>
</svg>