<?xml version="1.0" encoding="UTF-8"?>
<svg id="Layer_1" xmlns="http://www.w3.org/2000/svg" version="1.1" viewBox="0 0 512 512">
  <!-- Generator: Adobe Illustrator 29.8.1, SVG Export Plug-In . SVG Version: 2.1.1 Build 2)  -->
  <path d="M108.22,39.52c1.58.81,4.23,4.88,4.23,6.34v23.25c13.5,4.75,26.57,16.64,34.17,28.82s8.5,19.78,8.1,33.32c-.05,1.57-1.17,3.58-.9,4.93.08.4,2.97,1.97,3.9,3.09,4.98,5.96,5.7,33.69-7.22,33v158.96h32.13v-23.25c0-1.11,1.55-6.64,2.12-8.03,2.54-6.25,9.04-10.38,15.64-11-4.23-16.71-6.16-33.82-4.12-51.04,6.67-56.55,52.86-102.73,101.37-127.77,3.88-13.83.3-34.89,20.69-35.16,20.03-.26,18.66,21.1,20.89,35.41,5.81,2.5,11.35,5.73,16.68,9.11,3.61,2.29,13.06,7.86,15.5,10.47,5.22,5.59.5,13.02-7.03,10.64-3.23-1.02-16.24-11.17-20.83-13.83-8.05-4.67-18.15-11.26-27.65-10.21-6.27.69-19.95,8.71-25.81,12.23-54.42,32.79-97.81,93.15-76.6,159.32l210.17.46c12.89-43.76,1.95-83.22-26.28-117.55-2.27-2.76-12.26-12.24-13.06-13.99-3.14-6.87,3.68-12.33,10.57-7.19,4.88,3.64,12.44,13.22,16.38,18.28,27.84,35.76,36.75,76.26,25.9,120.79,5.91-.36,16.88,8.28,16.88,13.98v28.32h14.8c.59,0,2.95,3.56,3.8,4.23v132.74c-1.88,2.5-3.66,4.53-7.15,4.27l-419.43-.02c-2.8-.06-5.52-2.06-6.14-4.85-.72-3.23-.72-25.16,0-28.39,1.71-7.67,12.5-4.58,12.5-.18v20.71h60.88v-42.7c0-30.35,36.34-46.62,59.96-28.67,5.78,4.39,13.6,16.28,13.6,23.6v47.77h32.97v-48.62c0-2.44,3.75-10.91,5.24-13.36,13.78-22.65,49.2-22.44,62.54.54,1.37,2.36,4.93,10.54,4.93,12.83v48.62h32.97v-47.77c0-7.32,7.82-19.21,13.6-23.6,23.65-17.97,59.96-1.67,59.96,28.67v42.7h60.88v-90.47H52.41v43.54c0,4.15-11.34,7.25-12.63-.9l-.07-74.37c-.59-1.57,3.03-6.32,3.82-6.32h16.91l1.31-2.92-.03-153.94c-.56-2.85-7.95-2.66-9.77-8.83-.86-2.89-.85-18.22-.33-21.54.75-4.83,5.8-7.35,5.91-7.84.39-1.71-.87-4.48-.93-6.56-.74-29.05,18.21-49.05,42.74-61.32,1.48-2.43-.2-19.33.49-24.06.43-2.97,1.61-2.7,3.31-4.69h5.07ZM141.19,135.06c5.3-21.53-10-41.91-27.97-51.93-4.76-2.66-6.29-4.21-11.81-1.8-18.29,7.99-37.24,32.82-31.24,53.73h71.02ZM325.51,104.62c.39-22.91-14.05-22.92-13.52,0,4.4-1.26,9.1-1.26,13.52,0ZM147.96,147.74h-83.71v12.68h82.44c2.63-3.18.71-8.68,1.27-12.68ZM137.81,173.11h-63.41v158.11h62.14l1.27-1.27v-156.84ZM441.35,331.22v-25.79c0-.24-2.81-2.78-3.4-3.37l-235.5-.48c-2.07-.59-6.3,1.93-6.3,3.84v25.79h245.2ZM459.95,343.9H52.41v12.68h407.53v-12.68ZM174.17,459.74v-46.93c0-3.15-5.11-11.22-7.67-13.46-14.97-13.11-40.52-2.71-40.52,17.69v42.7h48.19ZM279.85,459.74v-47.77c0-.47-2.47-6.18-3.01-7.13-8.65-15.21-33.43-14.93-41.65.52-.45.85-2.69,6.26-2.69,6.61v47.77h47.35ZM386.39,459.74v-42.7c0-20.41-25.56-30.8-40.52-17.69-2.56,2.24-7.67,10.31-7.67,13.46v46.93h48.19Z"/>
  <path d="M103.79,186.85c19.17-2.28,22.66,17.51,21.23,32.23-2.58,26.4-35.77,23.6-37.94,3.49-1.54-14.23-1.29-33.58,16.72-35.73ZM110.53,201.23c-2.73-2.93-9.41-1.98-10.6,2.07-.6,2.06-.52,15.02-.12,17.53,1.04,6.58,10.66,6.45,12.26-.31.86-3.63.93-16.63-1.54-19.29Z"/>
  <path d="M103.8,260.39c20.91-2.18,24.99,24.16,19.82,39.31-6.08,17.79-34.02,15.18-36.47-2.8-.61-4.46-.59-15.69-.08-20.22.92-8.18,8.61-15.44,16.73-16.29ZM105.47,273.04c-7.74.69-6.3,13.72-5.75,19.75.85,9.32,11.66,8.52,12.72-.89.59-5.24,1.13-19.59-6.97-18.87Z"/>
</svg>