<?xml version="1.0" encoding="UTF-8"?>
<svg id="Layer_1" xmlns="http://www.w3.org/2000/svg" version="1.1" viewBox="0 0 512 512">
  <!-- Generator: Adobe Illustrator 29.8.1, SVG Export Plug-In . SVG Version: 2.1.1 Build 2)  -->
  <path d="M269.28,43.12c4.79,1.28,10.26,1.12,15.26,1.78,93.97,12.46,170.15,88.41,182.45,182.52.65,5,.51,10.47,1.78,15.26-.37,8.52.5,17.28,0,25.78-5.77,98.78-81.46,182.45-179.26,197.77-146.9,23.01-272.11-107.74-241.9-253.63,1.21-5.82,5.99-26.2,8.99-30.09,4.32-5.59,13.21-2.77,13.85,4.25-6.08,20.03-11.46,40.63-11.47,61.75h14.96c1.33-43.24,19.29-83.76,47.41-116l-10.31-10.33c-.98.17-6.79,7.25-7.99,8.69-3.44,4.12-9.18,13.97-12.43,16.66-6.07,5.03-14.11-.35-12.35-8.19.61-2.71,10.7-15.5,13.15-18.45,37.36-45.04,93.44-74.34,152.09-77.77h25.77ZM248.5,58.92c-46.69.9-92.37,20.4-126.33,51.97l11.09,10.34c31.27-28.49,72.67-46.07,115.23-47.34v-14.97ZM263.46,73.89c36.82,1.06,72.76,14.47,102.15,36.26,2.14,1.58,12.31,10.83,13.14,11.05,2.46.65,8.85-7.77,10.99-9.59.46-2.65-23.64-19.85-27.44-22.27-29.05-18.47-64.22-29.98-98.84-30.42v14.97ZM244.17,89.1c-121.52,8.02-193.74,142.27-133.79,248.93,60.06,106.88,212.22,114.51,282.6,13.84,80.71-115.46-8.82-272.01-148.8-262.77ZM452.97,248.51c-.44-34.64-11.95-69.82-30.41-98.88-2.42-3.81-19.61-27.91-22.26-27.45-1.82,2.14-10.23,8.53-9.58,11,.22.83,9.49,10.99,11.06,13.13,21.67,29.43,35.24,65.35,36.23,102.2h14.96ZM73.95,263.47h-14.96c1.06,46.71,20.36,92.41,52.07,126.33,1.08.18,10.71-9.05,10.19-11-.31-1.17-8.62-10.15-10.22-12.31-22.27-30.04-35.87-65.29-37.07-103.02ZM452.97,263.47h-14.96c-1.3,42.54-18.77,84.08-47.32,115.28l10.33,11.1c31.47-33.96,51.25-79.67,51.95-126.37ZM248.5,438.09c-37.75-1.21-72.91-14.85-102.98-37.09-1.96-1.45-11.53-10.02-12.3-10.22-1.96-.51-11.17,9.11-10.99,10.19,33.86,31.66,79.68,51.09,126.28,52.09v-14.97ZM263.46,453.06c34.44-.56,68.68-11.7,97.68-29.92,3.97-2.49,29.09-19.95,28.6-22.77-2.14-1.82-8.53-10.24-10.99-9.59-.9.24-6.95,6.19-8.5,7.37-31.13,23.82-67.03,38.87-106.79,39.94v14.97Z"/>
  <path d="M72.06,157.18c12.05-2.48,12.5,18.84-1.49,14.45-6.32-1.98-5.38-13.03,1.49-14.45Z"/>
  <path d="M199.24,188.01l112.02-.2c6.82.73,12.69,6.78,12.91,13.69-2.39,35.17,3.06,74.3,0,109-.68,7.67-6.1,13.04-13.71,13.72-34.67,3.07-73.81-2.4-108.95,0-7.38-.51-13.03-6.46-13.71-13.72-3.27-34.73,2.51-74.53.03-109.79.39-5.72,5.88-11.75,11.42-12.69ZM309.18,202.77h-106.39v14.97h106.39v-14.97ZM309.18,233.54h-106.39v75.67h14.96v-36.17c0-4.7,5.03-9.04,9.54-9.58,5.33-.64,23.01-.69,28.09.21,2.64.47,8.09,4.28,8.09,6.88v38.67h45.72v-75.67ZM248.5,278.44h-14.96v30.77h14.96v-30.77Z"/>
  <path d="M254.96,103.99c3.27-.45,6.43,1.01,8.38,3.7,8.01,19.53,21.92,39.33,29.36,58.77.88,2.31,1.86,3.96,1.36,6.59-2.74,14.56-29.28-.46-37.73-1.82-8.9,1.62-21.39,8.37-30.07,8.91-3.13.2-5.59-1.56-7.01-4.22-2.33-4.36-1.35-5.9.28-10.02,7.66-19.36,20.95-38.77,29.1-58.2,1.11-1.96,4.17-3.41,6.33-3.7ZM256.8,127.94c-1.94-.42-1.33.26-1.85,1.07-5.9,9.12-9.78,21.9-15.59,31.35,11.74-5.14,20.43-4.94,32.41-.83l-14.97-31.59Z"/>
  <path d="M185.95,121.46c6.96-1.19,11.58,5.46,8.07,11.43-7.73,6.02-16.42,10.49-24.05,16.68-21.78,17.68-36.97,41.58-45.76,68.14-3.99,5.36-13.7,1.93-13.73-4.54,0-2.18,2.45-8.36,3.34-10.84,10.13-28.24,31.62-54.88,56.27-71.76,3.28-2.25,12.44-8.54,15.85-9.12Z"/>
  <path d="M112.74,230.49c4.19-.06,7.89,4.43,7.78,8.41-.04,1.39-.83,2.8-.86,4.21-.09,5.09,1.27,17.31-4.37,19.73s-10.53-.77-11.35-6.51c-.52-3.6.75-18.66,2.24-21.72,1.24-2.55,3.73-4.08,6.55-4.13Z"/>
</svg>