<?xml version="1.0" encoding="UTF-8"?>
<svg id="Layer_1" xmlns="http://www.w3.org/2000/svg" version="1.1" viewBox="0 0 512 512">
  <!-- Generator: Adobe Illustrator 29.8.1, SVG Export Plug-In . SVG Version: 2.1.1 Build 2)  -->
  <path d="M419.06,41.8c2.47,1.86,4.48,3.62,4.22,7.07v373.94c.76,2.28-2.72,7.07-4.64,7.07h-48.93v35.55c0,2.78-6.57,6.07-9.25,4.23l-24.5-17.96-23.91,17.96c-2.67,1.84-9.25-1.45-9.25-4.23v-35.55H117.54c-13.52,0-29.77-18.47-28.89-32.16l.05-325.38c1.29-10.43,6.88-20.39,16.15-25.66l12.27-4.88h301.94ZM142.21,55.18h-23.84c-5.47,0-16.31,10.86-16.31,16.31v298.17c3.66-2.29,11.28-6.69,15.47-6.69h24.67V55.18ZM409.86,55.18h-254.26v307.79h254.26V55.18ZM409.86,376.36H118.38c-.49,0-5.5,2.26-6.39,2.81-13.24,7.99-13.22,26.55,0,34.53.9.54,5.9,2.81,6.39,2.81h184.42v-13.38H120.05c-5.83,0-5.83-13.38,0-13.38h289.81v-13.38ZM356.33,403.12h-40.15v46.84c5.05-2.68,15.18-13.67,20.47-13.44,4.7.2,14.93,10.97,19.67,13.44v-46.84ZM409.86,403.12h-40.15v13.38h40.15v-13.38Z"/>
  <path d="M207.21,68.75h151.03c6.36,1.99,4.39,9.32,6.06,14.85,2.35,7.77,9.37,14.72,17.13,17.16,4.58,1.44,12.41.12,14.42,4.82l.58,205.07c-1.41,7.16-9.27,5.04-14.98,6.76-8.3,2.51-15.42,10.05-17.49,18.47-1.06,4.29.04,11.14-4.49,13.08l-152.25.45c-6.44-2-4.31-9.37-6.04-14.87-2.43-7.74-9.38-14.71-17.15-17.15-4.58-1.44-12.41-.12-14.42-4.82l-.58-205.07c1.43-7.24,9.32-4.96,15-6.75,7.74-2.43,14.71-9.38,17.15-17.15,1.73-5.5-.4-12.87,6.04-14.87ZM350.44,81.99h-135.43c-2.24,16.4-16.17,30.37-32.62,32.62l-.08,188.51c16.29,3.19,30.48,16.21,32.7,33.06h135.43c2.24-16.4,16.17-30.37,32.62-32.62l.08-188.51c-16.29-3.19-30.48-16.21-32.7-33.06Z"/>
  <path d="M281.69,117.22c2.47-.4,4.56,1,6.47,2.37,4.73,3.39,19.61,21.47,22.76,22.41,10.33,1.2,22.36-1.02,32.47.15,3.84.44,5.82,2.4,6.27,6.27,1.17,10.1-1.05,22.14.15,32.47,3.89,6.14,24.57,21.68,24.91,27.84.36,6.45-21,22.38-24.91,28.54-1.2,10.33,1.02,22.36-.15,32.47-.44,3.84-2.4,5.82-6.27,6.27-10.1,1.17-22.14-1.05-32.47.15-6.14,3.89-21.68,24.57-27.84,24.91-6.45.36-22.38-21-28.54-24.91-10.33-1.2-22.36,1.02-32.47-.15-3.84-.44-5.82-2.4-6.27-6.27-1.17-10.1,1.05-22.14-.15-32.47-3.89-6.14-24.57-21.68-24.91-27.84s21-22.38,24.91-28.54c1.2-10.33-1.02-22.36.15-32.47.44-3.84,2.4-5.82,6.27-6.27,10.1-1.17,22.14,1.05,32.47-.15,6.39-3.99,20.9-23.76,27.15-24.78ZM336.26,155.55h-30.53l-23.3-21.69-22.7,21.69h-30.53v30.53l-21.69,23.3,21.69,22.7v30.53h30.53l23.3,21.69,22.7-21.69h30.53v-30.53l21.69-23.3-21.69-22.7v-30.53Z"/>
  <path d="M275,167.45c6.05-.87,9.48,2.47,8.52,8.55-.36,2.3-2.27,4.61-2.93,7.11-4.42,16.87,6.63,33.81,23.84,36.47,5.52.85,13.31-2.31,16.79,1.61,6.99,7.87-11.39,22.64-17.85,25.68-37.8,17.78-75.98-23.52-54.77-59.79,5-8.55,16.33-18.18,26.39-19.63ZM266.83,186.5c-24.42,20.06-4.3,58.47,26.75,49.74,11.98-3.37,4.75-3.76-.55-6.1-17.49-7.74-28.8-24.26-26.2-43.64Z"/>
</svg>