<?xml version="1.0" encoding="UTF-8"?>
<svg id="Layer_1" xmlns="http://www.w3.org/2000/svg" version="1.1" viewBox="0 0 512 512">
  <!-- Generator: Adobe Illustrator 29.8.1, SVG Export Plug-In . SVG Version: 2.1.1 Build 2)  -->
  <path d="M17.15,366.24c3.36-5.27,7.71-6.97,13.98-6.53-.25-1.72-.92-3.28-.98-5.07-.68-22.15-5.34-57.19,24.77-60.18,20.26-2.01,43.67,1.43,64.28.05,12.94,5.5,3.78,16.93-7.87,13.93v51.29h94.64c6.76,0,16.99-9.68,19.78-15.65,2.64-5.64,4.58-18.98,2.88-24.72-.53-1.8-4.85-4.83-6.32-6.74-18.46-24.16-6.61-49.47,14.41-66.67,3.74-3.06,8.13-6.96,12.65-2.35,8.05,8.21-12.24,20.85-16.82,27.08-7.6,10.33-6.96,24.38,1.39,34.04l52.36,52.14,24.57-23.71-36.95-37.63c-3.51-5.55-3.11-13.71,1.04-18.81,6.77-4.68,33.3-36.29,38.29-37.26,6.41-1.25,11.18,4.85,7.77,10.6l-31.56,31.82c18.96,9.72,34.8,18.26,56.26,9.66,9.73-3.9,32.74-25.69,39.31-34.34,3.58-4.72.56-11.37-.95-16.8-15.59-56.03-66.31-99.29-124.13-106.18-17.2-2.05-43.12-2.23-60.54-1.1-36.15,2.36-61.81,35.13-53.89,70.76l32.06,97.6c-.01,3.54-2.74,6.39-6.15,6.93-4.07.64-16.25.57-20.48.08-9.29-1.08-9.03-12.68-.86-13.95,1.55-.24,10.7.41,10.68-.53-9.73-32.75-24.41-64.26-30.77-97.91-2.05-40.45,28.04-74.43,68.48-76.96,70.83-4.44,133,8.1,175.64,68.75,9.99,14.21,27.06,48.09,27.11,65.2.01,4.19-2.44,8.8-4.12,12.49,11.9,7.8,27.14,3.46,40.96,5.68,41.7,6.7,58.15,59.19,27.6,88.49h20.05c2.34,0,6.7,3.06,7.81,5.25,1.53,3.02,1.57,16.55.99,20.33-.73,4.74-4.16,7.46-8.78,8.01-5.21.62-22.76.63-27.56-.48-8.45-1.96-5.07-13.53-.44-13.53h22.85v-5.59H31.14v5.59h398.63c4.11,0,6.98,10.58.22,13.28l-403.09.76c-4.97,0-7.46-2.67-9.74-6.57v-20.51ZM422.77,284.18h-17.25c-4.58,0-18.41-8.45-19.45-8.25l-19.03,18.97c8.94,10.41,1.29,16.71-1.62,26.58-.97,3.29-2.82,12.27-2.31,15.32.44,2.62,3.83,5.39,5.16,7.94,1.47,2.83,2.36,8.46,3.72,10.26.65.85,8.53,4.71,9.28,4.71h41.49v-75.53ZM436.76,359.71c40.69-9.4,40.78-65.22,0-74.6v74.6ZM350.03,328.94c-1.88-4.79,6.95-21.5,6.41-23.58-.16-.63-1.18-1.86-1.73-2.11-.71-.33-12.18,4.23-14.88,4.76-13.65,2.68-25.42.27-38.28-4.24l22.4,22.82c8.79.98,17.5-.19,26.09,2.35ZM97.34,308.42h-43.36c-4.01,0-9.17,7.76-9.71,11.74-.85,6.23-.99,28.33-.02,34.36.29,1.84,2.31,5.19,4.14,5.19h29.84c.88,0,2.01-2.33.97-3.77s-8.96.04-12.81-6.77c-3.02-5.33-2.7-15.37,2-19.82.64-.6,4.85-3.22,5.18-3.22h23.78v-17.72ZM268.91,359.71l-26.1-26.11c-.66,9.99-4.85,18.03-10.27,26.11h36.37ZM97.34,340.13h-18.65c.99,1.7,4.22,1.59,6.23,2.63,6.77,3.52,9.47,9.36,8.7,16.95h3.73v-19.59ZM358.43,359.71c-1.47-10.41-8.52-17.58-19.13-18.64-3.43-.34-15.29-.55-17.76.87-4.67,2.69-12.52,13.85-17.2,17.77h54.08Z"/>
  <path d="M262.65,230.75c-6.5-5.54,5.87-17.37,10.44-21.19,3.14-2.62,6.27-5.75,10.5-3.94,11.65,4.99-4.74,20.08-9.98,24.03-3.24,2.44-7.37,4.14-10.95,1.09Z"/>
  <path d="M399.25,289.06c9.75-1.06,19.89,6.87,19.86,17.04-.03,8.63-10.44,10.71-13.37,3.95-1.13-2.6.04-6.66-4.11-7.01-6.09-.51-2.31,12.94-12.68,10.81-11.53-2.36-3.66-23.27,10.3-24.8Z"/>
</svg>