<?xml version="1.0" encoding="UTF-8"?>
<svg id="Layer_1" xmlns="http://www.w3.org/2000/svg" version="1.1" viewBox="0 0 512 512">
  <!-- Generator: Adobe Illustrator 29.8.1, SVG Export Plug-In . SVG Version: 2.1.1 Build 2)  -->
  <path d="M354.09,465.11c-7.84-4.32-9.24-15.36-12.93-23.43-6.98-15.27-16.37-29.93-25.47-44.01-8.87,5.28-17.79,6.27-26.9.77s-11.27-14.97-11.09-24.87c-13.35-5.21-24.58-13.69-31.9-26.14-11.86,10.56-26.21,14.95-41.69,9.84-4.2-1.39-7.57-4.41-11.75-5.71-16.39,31.03-63.9,24.58-71.61-9.81-1.29-5.76-.95-10.66-.71-16.44-27.78-4.11-43.28-33.59-29.21-58.5,2.22-3.93,5.24-6.02,7.52-9.67,0-1.5-4.38-4.95-5.61-6.68-12.7-17.86-8.24-42.22,9.65-54.61-10.17-10.49-13.64-24.79-9.39-38.82,1.77-5.84,5.11-14.19,12.65-11.01,5.88,2.48-.18,11.78-1.22,15.91-7.41,29.39,31.38,45.56,47.67,21.53,10.35-15.27,1.22-38.61-17.5-41.06-5.2-.68-15.77,2.39-16.66-4.64-.97-7.66,6.43-8.15,12.23-7.69-7.78-30.46,21.97-57.23,51.47-45.75,2.52-41.36,56.18-51.58,74.84-14.72,27.77-20.83,66.06-.35,63.26,34.34,45.08-3.99,59.58,58.98,17.16,74.36-.71.82,3.22,7.01,3.89,8.77,7.62,20.01-.53,41.53-20.14,50.16.16,4.3,2.06,8.14,2.38,12.54,1.06,14.32-4.74,25.09-14.74,34.74,12.26,6.42,22.04,18.56,26.26,31.77,22.62-2.57,36.14,18.98,24.41,38.5l28.56,16.8c4.25,4.49.56,12.36-5.69,10.64-4.05-1.12-12.22-6.7-16.27-9.11-5.19-3.1-10.24-6.55-15.19-10.01l-25.54,25.59c12.03,19.56,24.78,39.12,32.5,60.88,1.51.35,1.58-.51,2.31-1.35,4.29-4.98,6.04-14.6,13.67-15.75,3.69-.56,15.3.11,17.94-2.49,3.28-3.24.82-16.47,4.62-22.34,2.85-4.4,11.62-6.49,15.37-10.76-2.1-2.05-6.19-1.81-7.55-4.68-2.14-4.54.92-9.97,6.15-9.45,3.31.33,13.4,4.7,15.18,7.72,6.67,11.25-11.35,19.12-18.59,24.47-1.47,5.7-.73,11.23-2.58,17.03-4.13,12.99-16.52,11.27-27.75,13.1-4.36,7.49-9.19,15.01-16.33,20.04h-5.72ZM216.61,59.2c-32.61,4.41-28.28,54.79,5.49,52.9,35.68-2.01,31.13-57.85-5.49-52.9ZM306.51,107.83c1.02-1.41,1.17-8.78.99-10.84-1.71-19.32-23.64-29.47-40.14-19.72-9.66,5.71-7.43,9.27-9.58,19.02-1.81,8.23-4.67,8.12.54,17.19,6.19,10.79,18.31,14.43,30.21,11.97,2.55-3.58,4.27-7.32,7.51-10.52,2.1-2.08,10.09-6.59,10.46-7.11ZM161.84,94.32c-14.64,2.45-22.29,18.28-20.02,31.89,1.3,7.78,6.63,7.54,11.99,11.7,2.23,1.73,6.59,7.33,8.25,8.09,5.41,2.46,16.4-.73,21.18-4.12,8.35-5.93,12.3-16.68,10.48-26.72-.68-3.75-3.15-4.54-4.9-7.36-2.12-3.42-3.36-7.53-6.55-9.79-5.48-3.88-13.94-4.78-20.44-3.69ZM284.63,138.25c-17.24,2.1-31.85-8.07-39.63-22.86-11.06,9.17-25.29,10.97-38.81,6.53.17,20.03-18.28,37.97-38.41,36.77,3.59,16.76-2.24,31.54-15.32,42.07,14.81,16.52,14.07,41.54-2.64,56.39,10.3,9.24,15.53,23.59,12.24,37.17,7.86.46,14.7,4.18,21.23,8.18,11.21-23.75,44.86-27.29,62.52-8.19l13.47-11.83c-22.32-19-15.75-52.96,9.72-65.45-8.26-21.5,2.27-43.23,22.95-52.21-5.57-7.58-7.47-17.24-7.33-26.57ZM304.53,123.83c-22.56,22.9,8.85,59.4,35.26,39.75,29.7-22.1-8.6-66.8-35.26-39.75ZM299.12,176.04c-15.85,2.45-25.93,23.83-17.8,37.83,12.87.38,23.19,4.89,32.76,13.11,16.16-6.17,22.77-26.07,12.58-40.47-4.92-6.95-7.82-5.06-14.89-7.18-5.08-1.52-6.69-4.22-12.65-3.3ZM113.57,203.81c-1.18.1-4.57,2.36-5.71,3.22-12.74,9.58-13.59,30.7-.98,40.73,5.4,4.3,8.22.38,14.7-.05,2-.13,4.56-.13,6.56.04,7.52.64,9.28,5.16,15.56-1.63,10.92-11.82,8.92-30.63-4.2-39.87-5.85,1.08-11.67,1.43-17.52.26-2.11-.42-7.4-2.8-8.4-2.72ZM282,226.72c-25.99,2.34-32.96,37.32-10.22,49.81l22.87,1.3c27.7-11.88,17.2-53.8-12.65-51.11ZM120.19,260.22c-32.23,4.34-27.85,54.8,5.49,52.9,36.03-2.05,31.57-57.89-5.49-52.9ZM280.39,288.84c-13.4.72-25.09,8.86-28.67,22.01-6.05,22.24,10.29,45.57,31.73,51.26l40.25-40.25c-5.53-19.13-22.81-34.11-43.31-33.02ZM211.69,294.52c-10.61,1.67-20.04,12.51-21.02,23.1-2.29,24.55,26.46,39.21,44.55,22.49,7.92-7.33,2.3-12.9,2.81-22.53.23-4.23,2.85-8.76.39-12.59-5.4-8.42-17.16-11.97-26.73-10.46ZM133.64,323.92c-10.17,34.05,36.4,50.2,50.16,17.8-1.65-5.07-4.51-9.9-5.19-15.32-.43-3.41.42-8.32-.38-11.06-1.05-3.58-11.43-8.21-15.01-8.68-8.07-1.05-6.79,2.65-11.35,7.31-4.83,4.94-11.48,8.54-18.23,9.96ZM293.08,386.38c4.61,4.56,10.89,4.14,16.01.63,6.57-4.5,33-31.47,38.48-38.33,9.59-12.02-2.99-25.74-14.67-17.94-11.49,13.56-29.41,26.28-40.11,39.97-3.37,4.31-3.85,11.56.3,15.67Z"/>
</svg>