<?xml version="1.0" encoding="UTF-8"?>
<svg id="Layer_1" xmlns="http://www.w3.org/2000/svg" version="1.1" viewBox="0 0 512 512">
  <!-- Generator: Adobe Illustrator 29.8.1, SVG Export Plug-In . SVG Version: 2.1.1 Build 2)  -->
  <path d="M251.52,205.49c2.49,2.67,3.46,6.52,4.96,9.71l7.75.71c7.79-9.12,20.28-8.84,28.08.21,15.05,27.75,26.17,58.11,45.89,83.02,1.49-12.21-5.32-23.62-.67-35.67,6.97-18.06,30.23-14.09,35.04,3.23,1.85,6.66,1.17,14.06,2.17,20.82,2.82,18.99,13.01,27.9,7.17,49.42-3.47,12.77-14.74,20.77-13.28,34.71.55,5.28,4.33,15.37,6.51,20.47,2.4,5.61,13.57,20.4,7.76,25.07l-65.13,30.55c-1.56.35-4.8-.9-5.75-1.88-2.6-2.66-7.55-16.42-10.45-21.03-8.93-14.19-18.79-13.25-31.06-21.88-6.1-4.3-10.91-9.54-16.15-14.8-6.89,8.79-17.75,11.66-23.69,21.25-2.58,4.16-3.53,7.42-5.02,11.97-1.83,5.59-3.15,15.92-5.49,20.5-1.28,2.5-3.8,3.62-6.45,3.09-20.19-7.91-44.39-11.74-64.19-19.77-4.33-1.76-6.95-3.11-6.24-8.29,2.01-14.64,13.98-35.01,5.61-50.09-3.5-6.3-11.05-12.36-14.99-18.98-12.47-20.95-2.88-33.36-3.76-54.23-.22-5.21-2.2-11.86-2.12-16.95.26-15.79,16.14-27.83,30.04-17.03,12.3,9.55,6.1,26.17,9.46,39.52,9.04-13.15,13.32-30.63,17.97-46,3.86-12.78,6.54-28.8,11.2-40.78,3.8-9.78,12.05-14.13,22.51-11.99,2.81.58,6.71,4.49,7.2,4.53,1,.07,3.85-2.64,5.51-3.25,6.74-2.45,14.57-1.56,19.6,3.84ZM242.63,213.41c-2.45-2.34-7.59-1.24-8.95,2.01l-18.68,68.29c-2.45,6.63-12.2,5.43-11.98-1.95l16.99-64.13c-1.3-7.11-9.22-7.74-12.12-1.04-3.48,8.03-5.7,22.43-8.43,31.56-6.02,20.2-11.25,41.48-22.44,59.44,7.68,3.09,27.7,20.77,23.44,29.57-9.22,8.63-11.15-3.34-15.96-9.01-4.71-5.55-11.62-9.3-18.42-11.54-2.81-.92-6.2.17-8.5-2.48-1.59-1.83-2.18-10.26-2.52-13.47-.69-6.54.12-23.56-1.76-28.23-.78-1.93-4.39-5.26-6.57-5.05-10.69,4.11-5.07,16.7-4.66,25.3.9,18.9-8.03,31.6,2.59,49.41,5.23,8.78,14.6,15.1,17.68,25.28,1.96,6.5,1.35,13.42.57,20.18-1.08,9.38-4.36,18.31-5.83,27.58l53.85,16.04c3.11-15.71,7.34-28.97,19.96-39.51,2.72-2.27,6.09-3.49,8.49-5.49,27.11-22.48,27.63-79.68,39.34-111.65,1.44-6.21-6.09-9.67-10.44-5.39-4.05,4-6.55,26.44-10.01,32.97-1.92,3.63-5.1,5.12-8.79,2.95-4.93-2.9-1.64-9.67-.54-14.29,4.54-19.2,11.29-37.97,15.83-57.19.18-6.11-7.28-8.9-10.37-3.33l-17.29,60.67c-4.12,7.05-13.83,2.12-10.75-5.78l18.11-65.92c.33-1.53-.91-4.86-1.85-5.76ZM330.69,310.11c.96-1.36-8.27-11.42-9.77-13.66-14.85-22.09-25.43-48.63-37.66-72.27-1.75-2.23-4.7-3.9-7.42-2.55-3.47,2,.16,4.91.74,8.25,1.41,8.2-4.38,16.99-4.76,25.26,6.07-.22,12.32,2.55,15.81,7.67,4.48,6.59,2.05,10.03,3.63,16.36,1.49,5.95,13.8,21.25,13.26,26.33-.58,5.48-8.14,7.71-11.19,2.6l-7.51-12.96c-7.68,27.5-10.63,56.81-23.61,82.49,12.06,21.11,36.4,19.87,49.37,40.18,3.03,4.74,4.77,10.61,7.76,15.4l51.3-23.09c-6.79-14.54-16.54-32.45-13.52-49.03,1.44-7.9,9.06-16.33,12.01-23.97,7.06-18.29-2.02-25.7-5.2-41.76-1.39-7.01-1.05-25.65-5.31-29.67-3.86-3.63-9.53-2.06-10.71,3.15-2.09,9.24,7.32,35.92,2.84,42.86-1.17,1.81-11.89,6.22-15.56,9.41-2.84,2.46-5.35,5.47-7.26,8.72-2.05,3.47-4.45,12.56-7.21,13.8-3.77,1.7-7.89-.39-8.49-4.47-1.22-8.16,10.75-25.81,18.48-29.06Z"/>
  <path d="M305.76,83.15h8.98c-1.94-6.56,6.1-12.4,10.74-7.77,1.84,1.84,1.64,21.59.99,25.07-1.4,7.51-14.43,3.32-11.74-5.3h-8.98c-.31,7.3,2.41,16.4-6.54,18.94h-75.74c-9.43-2.32-7.55-11.27-7.54-18.95h-8.99c2.92,9.21-10.41,12.71-11.95,4.48-.59-3.17-.39-20.86.91-23.04,3.72-6.22,13.57-.78,11.03,6.57h8.99c-.01-7.68-1.9-16.63,7.54-18.95l75.58.15c8.66,3.02,6.61,11.36,6.69,18.79ZM293.78,76.14h-65.87v26h65.87v-26Z"/>
  <path d="M264.56,128.44c1.4,1.17,15.01,28.27,16.02,31.43,3.16,9.85.64,20.53-8.82,25.71-15.99,8.75-34.16-4.03-31.78-21.85.46-3.42,13.11-30.74,15.42-33.54s6.08-4.31,9.16-1.74ZM259.86,147.14c-1.35,6.11-8.3,14.35-8.07,20.47.41,11.09,18.86,12.48,18.08-.94-.16-2.74-8.91-20.37-10.01-19.53Z"/>
  <path d="M298.47,135.33c10.92-3.36,9.99,17.38,5.85,19.87-11.96,7.2-12.14-17.94-5.85-19.87Z"/>
  <path d="M218.65,127.32c11.63-3.4,11.74,26.9-1.73,20.32-3.05-1.49-3.82-18.7,1.73-20.32Z"/>
  <path d="M305.5,174.4c2.35,2.48,2.38,15.96-1.99,18.01-11.2,5.27-12.01-19.29-3.1-20.06.94-.08,4.48,1.41,5.08,2.05Z"/>
  <path d="M217.63,163.34c14.86-4.49,10.57,27.08-.68,18.27-3.11-2.43-3.44-17.03.68-18.27Z"/>
</svg>