<?xml version="1.0" encoding="UTF-8"?>
<svg id="Layer_1" xmlns="http://www.w3.org/2000/svg" version="1.1" viewBox="0 0 512 512">
  <!-- Generator: Adobe Illustrator 29.8.1, SVG Export Plug-In . SVG Version: 2.1.1 Build 2)  -->
  <path d="M297.1,112.52h21.91c.84,0,5.27,1.93,6.43,2.52,14.66,7.47,14.86,27.85,1.48,36.69l-8.35,3.71c50.07,24.05,84.18,68.9,98.12,122.35,9.22,35.35,15.36,105.09,5.17,139.71-15.39,52.27-70.86,59.99-118.02,61.75-30.1,1.12-64.77,1.08-94.88,0-42.88-1.54-97.39-7.97-115.94-53.1-14.18-34.49-7.5-110.43,2.02-146.77,14.35-54.78,49.53-97.82,99.2-124.39-20.32-2.24-26.49-30.41-7.76-39.96,1.16-.59,5.59-2.52,6.43-2.52h21.91l-27.92-55.7c-.9-2.25-1.25-5.57-.23-7.79.7-1.53,22.94-16.32,25.23-16.8,7.83-1.65,15.67,9.19,23.05,11.37,6.62-1.96,14.72-11.72,21.48-11.67,5.68.04,14.48,10.09,20.56,11.67,7.38-2.18,15.22-13.02,23.05-11.37,2.15.45,20.76,12.61,22.96,14.61,3.04,2.78,3.34,5.39,2.31,9.37l-28.2,56.32ZM280.86,112.37l28.4-56.16c.38-1.58-9.83-8.27-11.65-8.11-6.71,2.58-15.04,12.72-22.36,11.62-4.95-.74-16-11.93-19.67-11.62-6.37,2.42-14.78,12.2-21.52,11.71l-20.52-11.71-10.85,7.16,28.37,57.12h49.8ZM194.88,127.01c-7.27,1.63-7.08,12.93.69,13.24h120.77c8.74-.89,7.55-12.98-.89-13.45l-120.57.21ZM228.89,154.76c-83.66,31.73-123,95.79-128.54,183.59-2.48,39.31-6.92,90.93,33.66,112.11,37.83,19.74,130.54,15.71,174.29,13.55,37.13-1.83,83.02-5.41,98.36-45.64,10.07-26.42,5.7-86.05,1.1-114.65-11.78-73.14-55.03-124.38-124.72-148.96h-54.14Z"/>
  <path d="M137.01,347.74h28.17c.2,0,2.94,2.1,3.17,2.42,3.1,4.5.88,10.08-4.25,11.7-12.66-.69-27.68,1.59-40.06.19-5.2-.59-8.1-2.83-7.58-8.41l30.38-50.62h-25.49c-4.83,0-8-12.29.19-14.12,12.17.95,28.32-1.96,40-.14,6.22.97,6.75,6.64,4.56,11.61-4.99,11.37-18.01,27.96-25,39.39-1.48,2.42-3.53,5.2-4.1,7.97Z"/>
  <path d="M249.7,310.17c.59.68,4.96-2.95,5.79-3.6,4.8-3.71,18.67-17.78,23.95-16.84s8.08,9.03,3.39,12.88l-28.67,23.24c-.26,1.05.76,1.59,1.31,2.24,5.89,6.96,17.91,13.99,23.75,20.97,4.17,4.98,2.38,12.23-4.26,12.82-5.85.52-19.44-16.48-25.26-19.51v14.76c0,4.35-12.26,8.24-14.1-2,.9-18.6-1.92-39.65-.25-57.97.56-6.19,5.78-10.89,11.62-7.06.75.49,2.73,2.96,2.73,3.53v16.55Z"/>
  <path d="M300.8,350.54c-1.16,11.75-15.4,16.22-16.04,2.35l21.68-59.77c2.67-5.36,10.93-5.3,13.07.46,4.88,18.61,16.34,38.72,20.81,57,1.64,6.7-1.33,12-8.75,10.55-5.4-1.05-4.89-9.78-7.3-10.59h-23.46ZM319.46,336.11c-.33-1.64-5.97-18.8-7.14-17.89l-6.27,17.89h13.42Z"/>
  <path d="M214.69,350.54l-23.43.02c-3.09,1.06-1.88,9.62-8.27,10.55-7.41,1.08-9.26-3.31-8.02-9.85,3.32-17.49,16.38-39.2,20.6-57.2,2.89-6.51,10.26-6.48,13.66-.23l21.48,59.93c-2.05,12.92-15.12,7.94-16.04-3.22ZM209.45,336.11l-6.27-17.89c-3.86,4.82-5.34,12.04-7.15,17.89h13.42Z"/>
  <path d="M371.33,303.02l-.05,53.16c-1.24,8.01-12.81,7.88-14.18-1.82l-.08-51.35h-18.33c-4.98,0-8.31-12.21.19-14.12,15.75.73,33.53-1.62,49.04-.23,11.97,1.07,7.27,14.35,2.64,14.35h-19.23Z"/>
</svg>